<?xml version="1.0" encoding="UTF-8" standalone="no"?>
<svg
   xmlns:dc="http://purl.org/dc/elements/1.1/"
   xmlns:cc="http://creativecommons.org/ns#"
   xmlns:rdf="http://www.w3.org/1999/02/22-rdf-syntax-ns#"
   xmlns:svg="http://www.w3.org/2000/svg"
   xmlns="http://www.w3.org/2000/svg"
   id="svg6338"
   version="1.1"
   viewBox="0 0 283.19697 79.374999"
   height="300"
   width="1070.3507">
  <defs
     id="defs6332" />
  <metadata
     id="metadata6335">
    <rdf:RDF>
      <cc:Work
         rdf:about="">
        <dc:format>image/svg+xml</dc:format>
        <dc:type
           rdf:resource="http://purl.org/dc/dcmitype/StillImage" />
        <dc:title></dc:title>
      </cc:Work>
    </rdf:RDF>
  </metadata>
  <g
     transform="translate(-63.867452,-78.609934)"
     id="layer1">
    <path
       id="path5970"
       style="fill:#00539f;fill-rule:evenodd;stroke-width:1.14741075"
       d="M 63.867452,78.609934 H 182.88391 V 157.98493 H 63.867452 Z" />
    <path
       id="path5972"
       style="fill:#f9e127;fill-rule:evenodd;stroke-width:1.14741075"
       d="m 120.88081,95.889487 c 2.49481,-1.848029 2.49481,-1.848029 2.49481,-1.848029 0,0 2.49493,1.848029 2.49493,1.848029 0,0 -0.92401,-2.957003 -0.92401,-2.957003 2.49482,-1.848029 2.49482,-1.848029 2.49482,-1.848029 0,0 -3.14173,0 -3.14173,0 0,0 -0.92401,-2.956872 -0.92401,-2.956872 0,0 -1.01638,2.956872 -1.01638,2.956872 0,0 -3.14172,0 -3.14172,0 0,0 2.5873,1.848029 2.5873,1.848029 -0.92401,2.957003 -0.92401,2.957003 -0.92401,2.957003 z" />
    <path
       id="path5974"
       style="fill:#f9e127;fill-rule:evenodd;stroke-width:1.14741075"
       d="m 107.85184,99.400759 c 2.49482,-1.847985 2.49482,-1.847985 2.49482,-1.847985 0,0 2.49493,1.847985 2.49493,1.847985 0,0 -0.92401,-2.956872 -0.92401,-2.956872 2.58729,-1.848029 2.58729,-1.848029 2.58729,-1.848029 0,0 -3.14172,0 -3.14172,0 0,0 -1.01649,-2.956959 -1.01649,-2.956959 -0.92401,2.956959 -0.92401,2.956959 -0.92401,2.956959 0,0 -3.14173,0 -3.14173,0 0,0 2.49482,1.848029 2.49482,1.848029 -0.9239,2.956872 -0.9239,2.956872 -0.9239,2.956872 z" />
    <path
       id="path5976"
       style="fill:#f9e127;fill-rule:evenodd;stroke-width:1.14741075"
       d="m 100.82911,101.15642 c -0.924121,2.957 -0.924121,2.957 -0.924121,2.957 0,0 -3.141728,0 -3.141728,0 0,0 2.49493,1.84812 2.49493,1.84812 0,0 -0.92401,2.95691 -0.92401,2.95691 0,0 2.494929,-1.84803 2.494929,-1.84803 2.49482,1.84803 2.49482,1.84803 2.49482,1.84803 -0.92401,-2.95691 -0.92401,-2.95691 -0.92401,-2.95691 2.5873,-1.84812 2.5873,-1.84812 2.5873,-1.84812 0,0 -3.14173,0 -3.14173,0 0,0 -1.01638,-2.957 -1.01638,-2.957 z" />
    <path
       id="path5978"
       style="fill:#f9e127;fill-rule:evenodd;stroke-width:1.14741075"
       d="m 97.317692,120.09926 c 2.587297,1.84816 2.587297,1.84816 2.587297,1.84816 0,0 -1.01649,-2.95692 -1.01649,-2.95692 0,0 2.587411,-1.84812 2.587411,-1.84812 0,0 -3.141729,0 -3.141729,0 -1.016489,-3.04924 -1.016489,-3.04924 -1.016489,-3.04924 0,0 -0.924011,3.04924 -0.924011,3.04924 0,0 -3.141727,0 -3.141727,0 2.587297,1.84812 2.587297,1.84812 2.587297,1.84812 0,0 -1.01649,2.95692 -1.01649,2.95692 2.494931,-1.84816 2.494931,-1.84816 2.494931,-1.84816 z" />
    <path
       id="path5980"
       style="fill:#f9e127;fill-rule:evenodd;stroke-width:1.14741075"
       d="m 101.84549,130.17148 c -1.01638,-3.04951 -1.01638,-3.04951 -1.01638,-3.04951 -0.924121,3.04951 -0.924121,3.04951 -0.924121,3.04951 0,0 -3.141728,0 -3.141728,0 2.49493,1.75566 2.49493,1.75566 2.49493,1.75566 0,0 -0.92401,3.04924 -0.92401,3.04924 0,0 2.494929,-1.84816 2.494929,-1.84816 0,0 2.49482,1.84816 2.49482,1.84816 -0.92401,-3.04924 -0.92401,-3.04924 -0.92401,-3.04924 2.5873,-1.75566 2.5873,-1.75566 2.5873,-1.75566 0,0 -3.14173,0 -3.14173,0 z" />
    <path
       id="path5982"
       style="fill:#f9e127;fill-rule:evenodd;stroke-width:1.14741075"
       d="m 111.36315,139.689 c -1.01649,-3.04933 -1.01649,-3.04933 -1.01649,-3.04933 0,0 -0.92401,3.04933 -0.92401,3.04933 0,0 -3.14173,0 -3.14173,0 2.5873,1.84816 2.5873,1.84816 2.5873,1.84816 0,0 -1.01638,2.95687 -1.01638,2.95687 0,0 2.49482,-1.84816 2.49482,-1.84816 0,0 2.58729,1.84816 2.58729,1.84816 -1.01637,-2.95687 -1.01637,-2.95687 -1.01637,-2.95687 0,0 2.58729,-1.84816 2.58729,-1.84816 0,0 -3.14172,0 -3.14172,0 z" />
    <path
       id="path5984"
       style="fill:#f9e127;fill-rule:evenodd;stroke-width:1.14741075"
       d="m 124.29963,143.10794 c -0.92401,-2.957 -0.92401,-2.957 -0.92401,-2.957 -1.01638,2.957 -1.01638,2.957 -1.01638,2.957 0,0 -3.14172,0 -3.14172,0 0,0 2.5873,1.84816 2.5873,1.84816 -0.92401,2.95687 -0.92401,2.95687 -0.92401,2.95687 0,0 2.49481,-1.84816 2.49481,-1.84816 2.49493,1.84816 2.49493,1.84816 2.49493,1.84816 0,0 -0.92401,-2.95687 -0.92401,-2.95687 2.49482,-1.84816 2.49482,-1.84816 2.49482,-1.84816 -3.14173,0 -3.14173,0 -3.14173,0 z" />
    <path
       id="path5986"
       style="fill:#f9e127;fill-rule:evenodd;stroke-width:1.14741075"
       d="m 137.3286,139.689 c -1.01638,-3.04933 -1.01638,-3.04933 -1.01638,-3.04933 -0.92401,3.04933 -0.92401,3.04933 -0.92401,3.04933 0,0 -3.14173,0 -3.14173,0 0,0 2.5873,1.84816 2.5873,1.84816 -1.01649,2.95687 -1.01649,2.95687 -1.01649,2.95687 2.49493,-1.84816 2.49493,-1.84816 2.49493,-1.84816 2.5873,1.84816 2.5873,1.84816 2.5873,1.84816 0,0 -1.0165,-2.95687 -1.0165,-2.95687 0,0 2.58742,-1.84816 2.58742,-1.84816 0,0 -3.14184,0 -3.14184,0 z" />
    <path
       id="path5988"
       style="fill:#f9e127;fill-rule:evenodd;stroke-width:1.14741075"
       d="m 146.84626,130.17148 c -0.92401,-3.04951 -0.92401,-3.04951 -0.92401,-3.04951 -1.01649,3.04951 -1.01649,3.04951 -1.01649,3.04951 0,0 -3.14173,0 -3.14173,0 0,0 2.5873,1.75566 2.5873,1.75566 0,0 -1.01638,3.04924 -1.01638,3.04924 2.5873,-1.84816 2.5873,-1.84816 2.5873,-1.84816 0,0 2.49493,1.84816 2.49493,1.84816 0,0 -1.01649,-3.04924 -1.01649,-3.04924 0,0 2.58729,-1.75566 2.58729,-1.75566 0,0 -3.14172,0 -3.14172,0 z" />
    <path
       id="path5990"
       style="fill:#f9e127;fill-rule:evenodd;stroke-width:1.14741075"
       d="m 153.40692,117.05001 c -3.14172,0 -3.14172,0 -3.14172,0 0,0 -0.92401,-2.95687 -0.92401,-2.95687 0,0 -1.01638,2.95687 -1.01638,2.95687 0,0 -3.14184,0 -3.14184,0 0,0 2.58741,1.84803 2.58741,1.84803 0,0 -0.92412,2.957 -0.92412,2.957 2.49493,-1.84815 2.49493,-1.84815 2.49493,-1.84815 0,0 2.49493,1.84815 2.49493,1.84815 0,0 -0.92401,-2.957 -0.92401,-2.957 0,0 2.49481,-1.84803 2.49481,-1.84803 z" />
    <path
       id="path5992"
       style="fill:#f9e127;fill-rule:evenodd;stroke-width:1.14741075"
       d="m 143.33495,108.91845 c 2.5873,-1.84803 2.5873,-1.84803 2.5873,-1.84803 0,0 2.49493,1.84803 2.49493,1.84803 0,0 -1.01649,-2.95691 -1.01649,-2.95691 0,0 2.58729,-1.84812 2.58729,-1.84812 0,0 -3.14172,0 -3.14172,0 0,0 -0.92401,-3.04924 -0.92401,-3.04924 0,0 -1.01649,3.04924 -1.01649,3.04924 0,0 -3.14173,0 -3.14173,0 0,0 2.5873,1.84812 2.5873,1.84812 0,0 -1.01638,2.95691 -1.01638,2.95691 z" />
    <path
       id="path5994"
       style="fill:#f9e127;fill-rule:evenodd;stroke-width:1.14741075"
       d="m 136.4047,91.638899 c -1.01649,2.956959 -1.01649,2.956959 -1.01649,2.956959 0,0 -3.14173,0 -3.14173,0 0,0 2.5873,1.848029 2.5873,1.848029 0,0 -0.92412,2.956872 -0.92412,2.956872 2.49504,-1.847985 2.49504,-1.847985 2.49504,-1.847985 0,0 2.49482,1.847985 2.49482,1.847985 0,0 -0.92401,-2.956872 -0.92401,-2.956872 0,0 2.49493,-1.848029 2.49493,-1.848029 0,0 -3.14184,0 -3.14184,0 0,0 -0.9239,-2.956959 -0.9239,-2.956959 z" />
    <text
       style="font-size:13.76893044px;letter-spacing:0px;word-spacing:2.29482198px;fill:#ffffff;stroke-width:1.14741075"
       id="text6004"
       y="102.11391"
       x="188.76036">
      <tspan
         style="font-size:15.49004745px;font-family:Arial;letter-spacing:0px;word-spacing:0px;fill:#ffffff;stroke-width:1.14741075"
         id="tspan5996"
         font-size="13.5000">ЕВРОПЕЙСКИ СЪЮЗ</tspan>
    </text>
    <text
       style="font-size:13.76893044px;fill:#ffffff;stroke-width:1.14741075"
       id="text6018"
       y="123.62214"
       x="188.76036">
      <tspan
         style="font-size:15.49004745px;font-family:Arial;word-spacing:2.29482198px;fill:#ffffff;stroke-width:1.14741075"
         id="tspan6008"
         font-size="13.5000">ЕВРОПЕЙСКИ</tspan>
    </text>
    <text
       id="text6987"
       style="font-size:13.76893044px;fill:#ffffff;stroke-width:1.14741075"
       y="145.13037"
       x="189.21417">
      <tspan
         id="tspan6989"
         style="font-size:15.49004745px;font-family:Arial;word-spacing:0px;fill:#ffffff;stroke-width:1.14741075"
         font-size="13.5000">СОЦИАЛЕН ФОНД</tspan>
    </text>
    <path
       id="path6020"
       style="fill:#00539f;fill-rule:evenodd;stroke-width:1.14741075"
       d="M 63.867452,78.609934 H 182.88391 V 157.98493 H 63.867452 Z" />
    <path
       id="path6022"
       style="fill:#f9e127;fill-rule:evenodd;stroke-width:1.14741075"
       d="m 120.88081,95.889487 c 2.49481,-1.848029 2.49481,-1.848029 2.49481,-1.848029 0,0 2.49493,1.848029 2.49493,1.848029 0,0 -0.92401,-2.957003 -0.92401,-2.957003 2.49482,-1.848029 2.49482,-1.848029 2.49482,-1.848029 0,0 -3.14173,0 -3.14173,0 0,0 -0.92401,-2.956872 -0.92401,-2.956872 0,0 -1.01638,2.956872 -1.01638,2.956872 0,0 -3.14172,0 -3.14172,0 0,0 2.5873,1.848029 2.5873,1.848029 -0.92401,2.957003 -0.92401,2.957003 -0.92401,2.957003 z" />
    <path
       id="path6024"
       style="fill:#f9e127;fill-rule:evenodd;stroke-width:1.14741075"
       d="m 107.85184,99.400759 c 2.49482,-1.847985 2.49482,-1.847985 2.49482,-1.847985 0,0 2.49493,1.847985 2.49493,1.847985 0,0 -0.92401,-2.956872 -0.92401,-2.956872 2.58729,-1.848029 2.58729,-1.848029 2.58729,-1.848029 0,0 -3.14172,0 -3.14172,0 0,0 -1.01649,-2.956959 -1.01649,-2.956959 -0.92401,2.956959 -0.92401,2.956959 -0.92401,2.956959 0,0 -3.14173,0 -3.14173,0 0,0 2.49482,1.848029 2.49482,1.848029 -0.9239,2.956872 -0.9239,2.956872 -0.9239,2.956872 z" />
    <path
       id="path6026"
       style="fill:#f9e127;fill-rule:evenodd;stroke-width:1.14741075"
       d="m 100.82911,101.15642 c -0.924121,2.957 -0.924121,2.957 -0.924121,2.957 0,0 -3.141728,0 -3.141728,0 0,0 2.49493,1.84812 2.49493,1.84812 0,0 -0.92401,2.95691 -0.92401,2.95691 0,0 2.494929,-1.84803 2.494929,-1.84803 2.49482,1.84803 2.49482,1.84803 2.49482,1.84803 -0.92401,-2.95691 -0.92401,-2.95691 -0.92401,-2.95691 2.5873,-1.84812 2.5873,-1.84812 2.5873,-1.84812 0,0 -3.14173,0 -3.14173,0 0,0 -1.01638,-2.957 -1.01638,-2.957 z" />
    <path
       id="path6028"
       style="fill:#f9e127;fill-rule:evenodd;stroke-width:1.14741075"
       d="m 97.317692,120.09926 c 2.587297,1.84816 2.587297,1.84816 2.587297,1.84816 0,0 -1.01649,-2.95692 -1.01649,-2.95692 0,0 2.587411,-1.84812 2.587411,-1.84812 0,0 -3.141729,0 -3.141729,0 -1.016489,-3.04924 -1.016489,-3.04924 -1.016489,-3.04924 0,0 -0.924011,3.04924 -0.924011,3.04924 0,0 -3.141727,0 -3.141727,0 2.587297,1.84812 2.587297,1.84812 2.587297,1.84812 0,0 -1.01649,2.95692 -1.01649,2.95692 2.494931,-1.84816 2.494931,-1.84816 2.494931,-1.84816 z" />
    <path
       id="path6030"
       style="fill:#f9e127;fill-rule:evenodd;stroke-width:1.14741075"
       d="m 101.84549,130.17148 c -1.01638,-3.04951 -1.01638,-3.04951 -1.01638,-3.04951 -0.924121,3.04951 -0.924121,3.04951 -0.924121,3.04951 0,0 -3.141728,0 -3.141728,0 2.49493,1.75566 2.49493,1.75566 2.49493,1.75566 0,0 -0.92401,3.04924 -0.92401,3.04924 0,0 2.494929,-1.84816 2.494929,-1.84816 0,0 2.49482,1.84816 2.49482,1.84816 -0.92401,-3.04924 -0.92401,-3.04924 -0.92401,-3.04924 2.5873,-1.75566 2.5873,-1.75566 2.5873,-1.75566 0,0 -3.14173,0 -3.14173,0 z" />
    <path
       id="path6032"
       style="fill:#f9e127;fill-rule:evenodd;stroke-width:1.14741075"
       d="m 111.36315,139.689 c -1.01649,-3.04933 -1.01649,-3.04933 -1.01649,-3.04933 0,0 -0.92401,3.04933 -0.92401,3.04933 0,0 -3.14173,0 -3.14173,0 2.5873,1.84816 2.5873,1.84816 2.5873,1.84816 0,0 -1.01638,2.95687 -1.01638,2.95687 0,0 2.49482,-1.84816 2.49482,-1.84816 0,0 2.58729,1.84816 2.58729,1.84816 -1.01637,-2.95687 -1.01637,-2.95687 -1.01637,-2.95687 0,0 2.58729,-1.84816 2.58729,-1.84816 0,0 -3.14172,0 -3.14172,0 z" />
    <path
       id="path6034"
       style="fill:#f9e127;fill-rule:evenodd;stroke-width:1.14741075"
       d="m 124.29963,143.10794 c -0.92401,-2.957 -0.92401,-2.957 -0.92401,-2.957 -1.01638,2.957 -1.01638,2.957 -1.01638,2.957 0,0 -3.14172,0 -3.14172,0 0,0 2.5873,1.84816 2.5873,1.84816 -0.92401,2.95687 -0.92401,2.95687 -0.92401,2.95687 0,0 2.49481,-1.84816 2.49481,-1.84816 2.49493,1.84816 2.49493,1.84816 2.49493,1.84816 0,0 -0.92401,-2.95687 -0.92401,-2.95687 2.49482,-1.84816 2.49482,-1.84816 2.49482,-1.84816 -3.14173,0 -3.14173,0 -3.14173,0 z" />
    <path
       id="path6036"
       style="fill:#f9e127;fill-rule:evenodd;stroke-width:1.14741075"
       d="m 137.3286,139.689 c -1.01638,-3.04933 -1.01638,-3.04933 -1.01638,-3.04933 -0.92401,3.04933 -0.92401,3.04933 -0.92401,3.04933 0,0 -3.14173,0 -3.14173,0 0,0 2.5873,1.84816 2.5873,1.84816 -1.01649,2.95687 -1.01649,2.95687 -1.01649,2.95687 2.49493,-1.84816 2.49493,-1.84816 2.49493,-1.84816 2.5873,1.84816 2.5873,1.84816 2.5873,1.84816 0,0 -1.0165,-2.95687 -1.0165,-2.95687 0,0 2.58742,-1.84816 2.58742,-1.84816 0,0 -3.14184,0 -3.14184,0 z" />
    <path
       id="path6038"
       style="fill:#f9e127;fill-rule:evenodd;stroke-width:1.14741075"
       d="m 146.84626,130.17148 c -0.92401,-3.04951 -0.92401,-3.04951 -0.92401,-3.04951 -1.01649,3.04951 -1.01649,3.04951 -1.01649,3.04951 0,0 -3.14173,0 -3.14173,0 0,0 2.5873,1.75566 2.5873,1.75566 0,0 -1.01638,3.04924 -1.01638,3.04924 2.5873,-1.84816 2.5873,-1.84816 2.5873,-1.84816 0,0 2.49493,1.84816 2.49493,1.84816 0,0 -1.01649,-3.04924 -1.01649,-3.04924 0,0 2.58729,-1.75566 2.58729,-1.75566 0,0 -3.14172,0 -3.14172,0 z" />
    <path
       id="path6040"
       style="fill:#f9e127;fill-rule:evenodd;stroke-width:1.14741075"
       d="m 153.40692,117.05001 c -3.14172,0 -3.14172,0 -3.14172,0 0,0 -0.92401,-2.95687 -0.92401,-2.95687 0,0 -1.01638,2.95687 -1.01638,2.95687 0,0 -3.14184,0 -3.14184,0 0,0 2.58741,1.84803 2.58741,1.84803 0,0 -0.92412,2.957 -0.92412,2.957 2.49493,-1.84815 2.49493,-1.84815 2.49493,-1.84815 0,0 2.49493,1.84815 2.49493,1.84815 0,0 -0.92401,-2.957 -0.92401,-2.957 0,0 2.49481,-1.84803 2.49481,-1.84803 z" />
    <path
       id="path6042"
       style="fill:#f9e127;fill-rule:evenodd;stroke-width:1.14741075"
       d="m 143.33495,108.91845 c 2.5873,-1.84803 2.5873,-1.84803 2.5873,-1.84803 0,0 2.49493,1.84803 2.49493,1.84803 0,0 -1.01649,-2.95691 -1.01649,-2.95691 0,0 2.58729,-1.84812 2.58729,-1.84812 0,0 -3.14172,0 -3.14172,0 0,0 -0.92401,-3.04924 -0.92401,-3.04924 0,0 -1.01649,3.04924 -1.01649,3.04924 0,0 -3.14173,0 -3.14173,0 0,0 2.5873,1.84812 2.5873,1.84812 0,0 -1.01638,2.95691 -1.01638,2.95691 z" />
    <path
       id="path6044"
       style="fill:#f9e127;fill-rule:evenodd;stroke-width:1.14741075"
       d="m 136.4047,91.638899 c -1.01649,2.956959 -1.01649,2.956959 -1.01649,2.956959 0,0 -3.14173,0 -3.14173,0 0,0 2.5873,1.848029 2.5873,1.848029 0,0 -0.92412,2.956872 -0.92412,2.956872 2.49504,-1.847985 2.49504,-1.847985 2.49504,-1.847985 0,0 2.49482,1.847985 2.49482,1.847985 0,0 -0.92401,-2.956872 -0.92401,-2.956872 0,0 2.49493,-1.848029 2.49493,-1.848029 0,0 -3.14184,0 -3.14184,0 0,0 -0.9239,-2.956959 -0.9239,-2.956959 z" />
  </g>
</svg>
