<?xml version="1.0" encoding="UTF-8" standalone="no"?>
<svg
   xmlns:dc="http://purl.org/dc/elements/1.1/"
   xmlns:cc="http://creativecommons.org/ns#"
   xmlns:rdf="http://www.w3.org/1999/02/22-rdf-syntax-ns#"
   xmlns:svg="http://www.w3.org/2000/svg"
   xmlns="http://www.w3.org/2000/svg"
   xmlns:xlink="http://www.w3.org/1999/xlink"
   id="svg1686"
   version="1.1"
   viewBox="0 0 52.916658 52.916667"
   height="200"
   width="199.99998">
  <defs
     id="defs1680">
    <clipPath
       id="clipPath7104"
       clipPathUnits="userSpaceOnUse">
      <path
         style="opacity:1;fill:#00a651;fill-opacity:1;stroke:none;stroke-width:0.26458332;stroke-linecap:round;stroke-linejoin:round;stroke-miterlimit:4;stroke-dasharray:none;stroke-opacity:1;paint-order:normal"
         d="m 108.83939,732.62758 -3.14896,0.31007 a 11.641665,11.831286 0 0 1 0.057,1.06968 11.641665,11.831286 0 0 1 -11.641671,11.8313 11.641665,11.831286 0 0 1 -4.393737,-0.88189 l -1.227831,3.04059 c 1.783096,0.74764 3.692679,1.13427 5.621568,1.13816 8.183021,0 14.816681,-6.74169 14.816681,-15.05799 -0.005,-0.48437 -0.0325,-0.96827 -0.0831,-1.44992 z"
         id="path7106" />
    </clipPath>
    <filter
       height="1.1283246"
       y="-0.064162314"
       width="1.1640379"
       x="-0.082018942"
       id="filter7098"
       style="color-interpolation-filters:sRGB">
      <feGaussianBlur
         id="feGaussianBlur7100"
         stdDeviation="0.55411247" />
    </filter>
    <clipPath
       id="clipPath6354"
       clipPathUnits="userSpaceOnUse">
      <path
         id="path6356"
         d="m 93.544162,717.60711 a 16.933334,16.933334 0 0 0 -0.259413,0.009 l 0.07028,1.42989 h 0.0067 l 0.04703,0.88622 c 0.03445,0 0.0689,-0.003 0.103352,-0.004 7.972119,1.9e-4 14.434709,6.10995 14.434779,13.64671 -0.002,1.39867 -0.2306,2.78881 -0.67902,4.12171 0.91353,0.24161 1.82413,0.49405 2.73523,0.74467 a 16.933334,16.933334 0 0 0 0.47439,-3.90107 16.933334,16.933334 0 0 0 -16.933341,-16.93334 z"
         style="opacity:1;fill:#ffffff;fill-opacity:1;stroke:none;stroke-width:0.26458332;stroke-linecap:round;stroke-linejoin:round;stroke-miterlimit:4;stroke-dasharray:none;stroke-opacity:1;paint-order:normal" />
    </clipPath>
    <filter
       height="1.1611423"
       y="-0.080571145"
       width="1.1301543"
       x="-0.065077104"
       id="filter6346"
       style="color-interpolation-filters:sRGB">
      <feGaussianBlur
         id="feGaussianBlur6348"
         stdDeviation="0.55419252" />
    </filter>
    <clipPath
       id="clipPath6934"
       clipPathUnits="userSpaceOnUse">
      <path
         id="path6936"
         d="m 79.395671,727.4789 a 16.933334,16.933334 0 0 0 -1.38131,6.68745 16.933334,16.933334 0 0 0 12.055079,16.20932 c 0.234421,-0.9231 0.476075,-1.87147 0.676963,-2.65977 -6.109949,-1.60965 -10.370646,-7.13089 -10.378697,-13.4493 0.0048,-1.98784 0.435075,-3.95163 1.261938,-5.75935 -0.744265,-0.34361 -1.489406,-0.68537 -2.233973,-1.02835 z"
         style="opacity:1;fill:#ffffff;fill-opacity:1;stroke:none;stroke-width:0.26458332;stroke-linecap:round;stroke-linejoin:round;stroke-miterlimit:4;stroke-dasharray:none;stroke-opacity:1;paint-order:normal" />
    </clipPath>
    <clipPath
       id="clipPath6362"
       clipPathUnits="userSpaceOnUse">
      <path
         id="path6364"
         d="m 106.24933,742.69347 a 14.816665,15.058001 0 0 1 -7.720457,5.73762 l 0.558623,1.77716 a 16.933334,16.933334 0 0 0 8.619114,-6.48023 z"
         style="opacity:1;fill:#ffffff;fill-opacity:1;stroke:none;stroke-width:0.26458332;stroke-linecap:round;stroke-linejoin:round;stroke-miterlimit:4;stroke-dasharray:none;stroke-opacity:1;paint-order:normal" />
    </clipPath>
    <clipPath
       id="clipPath6320"
       clipPathUnits="userSpaceOnUse">
      <path
         style="opacity:1;fill:#d22134;fill-opacity:1;stroke:none;stroke-width:0.26458332;stroke-linecap:round;stroke-linejoin:round;stroke-miterlimit:4;stroke-dasharray:none;stroke-opacity:1;paint-order:normal"
         d="m 89.964673,721.89119 a 12.699998,12.906857 0 0 0 -8.558861,12.18631 12.699998,12.906857 0 0 0 1.06536,5.13628 l 2.924064,-1.29069 a 9.5249989,9.6801432 0 0 1 -0.814424,-3.88676 9.5249989,9.6801432 0 0 1 6.406637,-9.13479 z"
         id="path6322" />
    </clipPath>
    <filter
       height="1.2273233"
       y="-0.11366166"
       width="1.1332313"
       x="-0.066615671"
       id="filter6314"
       style="color-interpolation-filters:sRGB">
      <feGaussianBlur
         id="feGaussianBlur6316"
         stdDeviation="0.43082363" />
    </filter>
    <clipPath
       id="clipPath6184"
       clipPathUnits="userSpaceOnUse">
      <path
         id="path6186"
         d="m 93.684185,717.38045 a 17.238402,17.238402 0 0 0 -0.264086,0.009 l 0.07154,1.45565 h 0.0068 l 0.04788,0.90219 c 0.03507,0 0.07014,-0.003 0.105213,-0.004 8.115738,1.9e-4 14.694758,6.22002 14.694828,13.89256 -0.002,1.42387 -0.23475,2.83906 -0.69125,4.19596 0.92999,0.24597 1.85699,0.50296 2.78451,0.75809 a 17.238402,17.238402 0 0 0 0.48293,-3.97135 17.238402,17.238402 0 0 0 -17.238402,-17.2384 z"
         style="opacity:1;fill:#ffffff;fill-opacity:1;stroke:none;stroke-width:0.26934999;stroke-linecap:round;stroke-linejoin:round;stroke-miterlimit:4;stroke-dasharray:none;stroke-opacity:1;paint-order:normal" />
    </clipPath>
    <filter
       height="1.1948487"
       y="-0.097424284"
       width="1.1141983"
       x="-0.057099149"
       id="filter6196"
       style="color-interpolation-filters:sRGB">
      <feGaussianBlur
         id="feGaussianBlur6198"
         stdDeviation="0.36927739" />
    </filter>
    <linearGradient
       gradientUnits="userSpaceOnUse"
       y2="784.08783"
       x2="107.70661"
       y1="784.08783"
       x1="98.52887"
       id="linearGradient7998"
       xlink:href="#white3"
       gradientTransform="translate(-543.74936,-727.81799)" />
    <linearGradient
       id="white3">
      <stop
         id="stop8204"
         offset="0"
         style="stop-color:#d9d9d9;stop-opacity:1" />
      <stop
         style="stop-color:#ebebeb;stop-opacity:1"
         offset="0.08066826"
         id="stop8206" />
      <stop
         id="stop8208"
         offset="0.6317327"
         style="stop-color:#f7f7f7;stop-opacity:1" />
      <stop
         id="stop8210"
         offset="1"
         style="stop-color:#d9d9d9;stop-opacity:1" />
    </linearGradient>
    <linearGradient
       gradientUnits="userSpaceOnUse"
       y2="788.00006"
       x2="78.026764"
       y1="765.11279"
       x1="78.026764"
       id="linearGradient7990"
       xlink:href="#white2"
       gradientTransform="translate(-543.74936,-727.81799)" />
    <linearGradient
       id="white2">
      <stop
         style="stop-color:#d9d9d9;stop-opacity:1"
         offset="0"
         id="stop8180" />
      <stop
         id="stop8182"
         offset="0.40604869"
         style="stop-color:#ebebeb;stop-opacity:1" />
      <stop
         style="stop-color:#f7f7f7;stop-opacity:1"
         offset="0.50117189"
         id="stop8184" />
      <stop
         style="stop-color:#ffffff;stop-opacity:1"
         offset="0.66277951"
         id="stop8186" />
      <stop
         style="stop-color:#d9d9d9;stop-opacity:1"
         offset="1"
         id="stop8188" />
    </linearGradient>
    <linearGradient
       gradientUnits="userSpaceOnUse"
       y2="776.07715"
       x2="93.284752"
       y1="755.25311"
       x1="93.284752"
       id="linearGradient7970"
       xlink:href="#white1"
       gradientTransform="translate(-543.74936,-727.81799)" />
    <linearGradient
       id="white1">
      <stop
         style="stop-color:#d9d9d9;stop-opacity:1"
         offset="0"
         id="stop8214" />
      <stop
         id="stop8216"
         offset="0.40604869"
         style="stop-color:#ebebeb;stop-opacity:1" />
      <stop
         style="stop-color:#f7f7f7;stop-opacity:1"
         offset="0.50117189"
         id="stop8218" />
      <stop
         style="stop-color:#f7f7f7;stop-opacity:1"
         offset="0.66277951"
         id="stop8220" />
      <stop
         style="stop-color:#d9d9d9;stop-opacity:1"
         offset="1"
         id="stop8222" />
    </linearGradient>
  </defs>
  <metadata
     id="metadata1683">
    <rdf:RDF>
      <cc:Work
         rdf:about="">
        <dc:format>image/svg+xml</dc:format>
        <dc:type
           rdf:resource="http://purl.org/dc/dcmitype/StillImage" />
        <dc:title></dc:title>
      </cc:Work>
    </rdf:RDF>
  </metadata>
  <g
     transform="translate(465.73498,-7.2779879)"
     id="layer1">
    <g
       transform="matrix(1.6300396,0,0,1.614851,293.43151,-37.010738)"
       id="g2394">
      <path
         id="path7916"
         d="m -453.78469,31.710169 a 12.699998,12.906857 0 0 0 -8.55886,12.18631 12.699998,12.906857 0 0 0 1.06536,5.13627 l 2.92407,-1.29069 a 9.5249987,9.6801429 0 0 1 -0.81443,-3.88676 9.5249987,9.6801429 0 0 1 6.40664,-9.1348 z"
         style="opacity:1;fill:#d22134;fill-opacity:1;stroke:none;stroke-width:0.26458332;stroke-linecap:round;stroke-linejoin:round;stroke-miterlimit:4;stroke-dasharray:none;stroke-opacity:1;paint-order:normal" />
      <path
         style="opacity:1;fill:url(#linearGradient7970);fill-opacity:1;stroke:none;stroke-width:0.26458332;stroke-linecap:round;stroke-linejoin:round;stroke-miterlimit:4;stroke-dasharray:none;stroke-opacity:1;paint-order:normal"
         d="m -450.2052,27.426089 a 16.933334,16.933334 0 0 0 -0.25941,0.009 l 0.0703,1.42989 h 0.007 l 0.047,0.88624 c 0.0344,-10e-4 0.0689,-0.003 0.10335,-0.004 7.97212,1.8e-4 14.43471,6.10994 14.43478,13.646699 -0.002,1.39867 -0.2306,2.78882 -0.67902,4.12171 0.91353,0.24162 1.82413,0.49405 2.73523,0.74467 a 16.933334,16.933334 0 0 0 0.47439,-3.901069 16.933334,16.933334 0 0 0 -16.93334,-16.933339 z"
         id="path7918" />
      <path
         style="opacity:1;fill:url(#linearGradient7990);fill-opacity:1;stroke:none;stroke-width:0.26458332;stroke-linecap:round;stroke-linejoin:round;stroke-miterlimit:4;stroke-dasharray:none;stroke-opacity:1;paint-order:normal"
         d="m -464.35369,37.297859 a 16.933334,16.933334 0 0 0 -1.38131,6.68745 16.933334,16.933334 0 0 0 12.05508,16.20933 c 0.23442,-0.92311 0.47608,-1.871462 0.67696,-2.65978 -6.10995,-1.609651 -10.37064,-7.13089 -10.37869,-13.4493 0.005,-1.98784 0.43507,-3.95163 1.26194,-5.75935 -0.74427,-0.34361 -1.48941,-0.68537 -2.23398,-1.02835 z"
         id="path7920" />
      <path
         style="opacity:1;fill:url(#linearGradient7998);fill-opacity:1;stroke:none;stroke-width:0.26458332;stroke-linecap:round;stroke-linejoin:round;stroke-miterlimit:4;stroke-dasharray:none;stroke-opacity:1;paint-order:normal"
         d="m -437.50003,52.512429 a 14.816665,15.058001 0 0 1 -7.72046,5.73762 l 0.55863,1.777159 a 16.933334,16.933334 0 0 0 8.61911,-6.480228 z"
         id="path7922" />
      <path
         clip-path="url(#clipPath6184)"
         transform="matrix(0.98230301,0,0,0.98230301,-542.23146,-677.2589)"
         style="opacity:1;fill:#000000;fill-opacity:0.6;stroke:none;stroke-width:0.26458332;stroke-linecap:round;stroke-linejoin:round;stroke-miterlimit:4;stroke-dasharray:none;stroke-opacity:1;paint-order:normal;filter:url(#filter6196)"
         d="m 94.482822,718.63163 c -5.272847,0.007 -10.144429,2.8625 -12.79218,7.49664 l 2.707431,1.60033 a 11.641665,11.831286 0 0 1 10.084749,-5.94043 11.641665,11.831286 0 0 1 2.157183,0.21218 l 0.57216,-3.10151 c -0.899696,-0.17462 -1.813392,-0.26406 -2.729343,-0.26721 z"
         id="path7924" />
      <path
         clip-path="url(#clipPath6320)"
         style="opacity:1;fill:#000000;fill-opacity:0.6;stroke:none;stroke-width:0.26458332;stroke-linecap:round;stroke-linejoin:round;stroke-miterlimit:4;stroke-dasharray:none;stroke-opacity:1;paint-order:normal;filter:url(#filter6314)"
         d="m 94.105808,719.01951 c -5.272847,0.007 -10.144429,2.8625 -12.79218,7.49664 l 2.707431,1.60033 a 11.641665,11.831286 0 0 1 10.084749,-5.94043 11.641665,11.831286 0 0 1 2.157183,0.21218 l 0.57216,-3.10151 c -0.899696,-0.17462 -1.813392,-0.26406 -2.729343,-0.26721 z"
         id="path7926"
         transform="translate(-543.74936,-690.18102)" />
      <path
         id="path7928"
         d="m -449.64355,28.838479 c -5.27285,0.007 -10.14443,2.8625 -12.79218,7.49664 l 2.70743,1.60033 a 11.641665,11.831286 0 0 1 10.08475,-5.94043 11.641665,11.831286 0 0 1 2.15718,0.21218 l 0.57216,-3.10151 c -0.89969,-0.17462 -1.81339,-0.26406 -2.72934,-0.26721 z"
         style="opacity:1;fill:#00a651;fill-opacity:1;stroke:none;stroke-width:0.26458332;stroke-linecap:round;stroke-linejoin:round;stroke-miterlimit:4;stroke-dasharray:none;stroke-opacity:1;paint-order:normal" />
      <path
         clip-path="url(#clipPath6362)"
         id="path7930"
         d="m 108.83939,732.62758 -3.14896,0.31007 a 11.641665,11.831286 0 0 1 0.057,1.06968 11.641665,11.831286 0 0 1 -11.641671,11.8313 11.641665,11.831286 0 0 1 -4.393736,-0.88189 l -1.227831,3.04059 c 1.783095,0.74765 3.692679,1.13428 5.621567,1.13817 8.183021,0 14.816681,-6.7417 14.816681,-15.05799 -0.005,-0.48439 -0.0325,-0.96827 -0.0831,-1.44993 z"
         style="opacity:1;fill:#000000;fill-opacity:0.6;stroke:none;stroke-width:0.26458332;stroke-linecap:round;stroke-linejoin:round;stroke-miterlimit:4;stroke-dasharray:none;stroke-opacity:1;paint-order:normal;filter:url(#filter6346)"
         transform="translate(-543.74936,-690.18102)" />
      <path
         clip-path="url(#clipPath6934)"
         style="opacity:1;fill:#272700;fill-opacity:0.6;stroke:none;stroke-width:0.26458332;stroke-linecap:round;stroke-linejoin:round;stroke-miterlimit:4;stroke-dasharray:none;stroke-opacity:1;paint-order:normal;filter:url(#filter6346)"
         d="m 108.83939,732.62758 -3.14896,0.31007 a 11.641665,11.831286 0 0 1 0.057,1.06968 11.641665,11.831286 0 0 1 -11.641671,11.8313 11.641665,11.831286 0 0 1 -4.393736,-0.88189 l -1.227831,3.04059 c 1.783095,0.74765 3.692679,1.13428 5.621567,1.13817 8.183021,0 14.816681,-6.7417 14.816681,-15.05799 -0.005,-0.48439 -0.0325,-0.96827 -0.0831,-1.44993 z"
         id="path7932"
         transform="translate(-543.74936,-690.18102)" />
      <path
         clip-path="url(#clipPath6354)"
         style="opacity:1;fill:#000000;fill-opacity:0.6;stroke:none;stroke-width:0.26458332;stroke-linecap:round;stroke-linejoin:round;stroke-miterlimit:4;stroke-dasharray:none;stroke-opacity:1;paint-order:normal;filter:url(#filter6346)"
         d="m 108.83939,732.62758 -3.14896,0.31007 a 11.641665,11.831286 0 0 1 0.057,1.06968 11.641665,11.831286 0 0 1 -11.641671,11.8313 11.641665,11.831286 0 0 1 -4.393736,-0.88189 l -1.227831,3.04059 c 1.783095,0.74765 3.692679,1.13428 5.621567,1.13817 8.183021,0 14.816681,-6.7417 14.816681,-15.05799 -0.005,-0.48439 -0.0325,-0.96827 -0.0831,-1.44993 z"
         id="path7934"
         transform="translate(-543.74936,-690.18102)" />
      <path
         id="path7936"
         d="m -434.90997,42.446549 -3.14896,0.31007 a 11.641665,11.831286 0 0 1 0.057,1.06968 11.641665,11.831286 0 0 1 -11.64167,11.831299 11.641665,11.831286 0 0 1 -4.39374,-0.88189 l -1.22783,3.040591 c 1.7831,0.747649 3.69268,1.13428 5.62157,1.138169 8.18302,0 14.81668,-6.741699 14.81668,-15.057989 -0.005,-0.48439 -0.0325,-0.96827 -0.0831,-1.44993 z"
         style="opacity:1;fill:#00a651;fill-opacity:1;stroke:none;stroke-width:0.26458332;stroke-linecap:round;stroke-linejoin:round;stroke-miterlimit:4;stroke-dasharray:none;stroke-opacity:1;paint-order:normal" />
      <g
         id="g7942"
         transform="matrix(0.85769339,0,0,0.86214627,-530.05193,-426.37103)"
         style="stroke-width:1.16290295">
        <path
           id="path7938"
           d="m 95.571289,533.58479 v 10.59572 h 7.482741 v -8.60256 l -1.99264,-1.99316 z m 0.790652,1.33583 h 1.966288 v 2.58847 h -1.966288 z m 2.576586,1.77044 h 3.197213 v 0.26458 h -3.197213 z m 0,0.95136 h 3.197213 v 0.26458 h -3.197213 z m -2.579687,0.95136 h 5.7769 v 0.26458 h -5.7769 z m 0,0.95136 h 5.7769 v 0.26459 h -5.7769 z m 0,0.95086 h 5.7769 v 0.26458 h -5.7769 z m 0,0.95136 h 5.7769 v 0.26459 h -5.7769 z m 0,0.95137 h 5.7769 v 0.26458 h -5.7769 z"
           style="opacity:1;fill:#dfbe51;fill-opacity:1;fill-rule:nonzero;stroke:none;stroke-width:0.03076849;stroke-linecap:round;stroke-linejoin:round;stroke-miterlimit:4;stroke-dasharray:none;stroke-opacity:1;paint-order:normal" />
        <path
           id="path7940"
           d="m 101.06108,533.58479 v 1.99293 h 1.99295 z"
           style="opacity:1;fill:#ac8b20;fill-opacity:1;fill-rule:nonzero;stroke:none;stroke-width:0.03076847;stroke-linecap:round;stroke-linejoin:round;stroke-miterlimit:4;stroke-dasharray:none;stroke-opacity:1;paint-order:normal" />
      </g>
      <path
         clip-path="url(#clipPath7104)"
         style="opacity:1;fill:#000000;fill-opacity:0.6;stroke:none;stroke-width:0.26458332;stroke-linecap:round;stroke-linejoin:round;stroke-miterlimit:4;stroke-dasharray:none;stroke-opacity:1;paint-order:normal;filter:url(#filter7098)"
         d="m 104.41657,726.31251 -2.51554,1.94159 a 9.5249989,9.6801432 15.308377 0 1 1.56339,8.3672 9.5249989,9.6801432 15.308377 0 1 -11.742742,6.82195 9.5249989,9.6801432 15.308377 0 1 -0.07122,-0.0232 l -0.886743,3.14407 a 12.699998,12.906857 15.308377 0 0 0.09511,0.0314 12.699998,12.906857 15.308377 0 0 15.656985,-9.09593 12.699998,12.906857 15.308377 0 0 -2.09933,-11.18675 z"
         id="path7944"
         transform="translate(-543.74936,-690.18102)" />
      <path
         id="path7946"
         d="m -439.33279,36.131479 -2.51554,1.94159 a 9.5249987,9.6801429 15.308377 0 1 1.56339,8.3672 9.5249987,9.6801429 15.308377 0 1 -11.74274,6.82195 9.5249987,9.6801429 15.308377 0 1 -0.0712,-0.0232 l -0.88674,3.14407 a 12.699998,12.906857 15.308377 0 0 0.0951,0.0314 12.699998,12.906857 15.308377 0 0 15.65698,-9.09593 12.699998,12.906857 15.308377 0 0 -2.09933,-11.18675 z"
         style="opacity:1;fill:#d22134;fill-opacity:1;stroke:none;stroke-width:0.26458332;stroke-linecap:round;stroke-linejoin:round;stroke-miterlimit:4;stroke-dasharray:none;stroke-opacity:1;paint-order:normal" />
      <g
         transform="matrix(1.5223456,0,0,1.5220494,-594.64295,-949.13372)"
         style="stroke-width:1.06672454"
         id="g7956">
        <circle
           transform="matrix(0.70721379,0.70699975,-0.70721379,0.70699975,0,0)"
           r="2.6313858"
           cy="393.35123"
           cx="533.57629"
           id="circle7948"
           style="opacity:1;fill:none;fill-opacity:1;fill-rule:nonzero;stroke:#dfbe51;stroke-width:0.6768055;stroke-linecap:round;stroke-linejoin:round;stroke-miterlimit:4;stroke-dasharray:none;stroke-opacity:1;paint-order:normal" />
        <rect
           transform="matrix(0.70721379,0.70699975,-0.70721379,0.70699975,0,0)"
           ry="0.16523391"
           y="392.85333"
           x="536.12579"
           height="0.63339669"
           width="3.8003802"
           id="rect7950"
           style="opacity:1;fill:#dfbe51;fill-opacity:1;fill-rule:nonzero;stroke:none;stroke-width:0.6768055;stroke-linecap:round;stroke-linejoin:round;stroke-miterlimit:4;stroke-dasharray:none;stroke-opacity:1;paint-order:normal" />
        <path
           id="path7952"
           d="m 99.227622,657.50089 a 2.0434515,2.0428331 0 0 0 0.725019,-0.12401 l -0.210838,-0.10957 a 2.8031509,3.0353435 0 0 1 -0.765329,0.21291 2.0434515,2.0428331 0 0 0 0.251148,0.0207 z m 0.952398,-0.22117 a 2.0434515,2.0428331 0 0 0 0.52244,-0.37671 2.0434515,2.0428331 0 0 0 0.59739,-1.39838 2.8031509,3.0353435 0 0 1 -0.64854,1.10744 2.8031509,3.0353435 0 0 1 -0.699185,0.54983 z"
           style="opacity:0.5;fill:#dfbe51;fill-opacity:1;fill-rule:nonzero;stroke:none;stroke-width:0.67680544;stroke-linecap:round;stroke-linejoin:round;stroke-miterlimit:4;stroke-dasharray:none;stroke-opacity:1;paint-order:normal" />
        <path
           id="path7954"
           transform="matrix(0.26458334,0,0,0.26458334,0,148.56851)"
           d="m 374.93164,1907.1641 a 8.186535,8.1840575 0 0 0 -5.9082,2.3964 8.186535,8.1840575 0 0 0 -1.86719,2.9219 l 1.53125,0.7891 a 9.4964185,9.4935445 0 0 1 1.375,-1.7559 9.4964185,9.4935445 0 0 1 10.5,-1.9922 8.186535,8.1840575 0 0 0 -5.63086,-2.3593 z m -8.17383,6.7695 a 8.186535,8.1840575 0 0 0 0.54102,4.6445 9.4964185,9.4935445 0 0 1 0.72656,-3.9922 z"
           style="opacity:0.544;fill:#dfbe51;fill-opacity:1;fill-rule:nonzero;stroke:none;stroke-width:2.55800509;stroke-linecap:round;stroke-linejoin:round;stroke-miterlimit:4;stroke-dasharray:none;stroke-opacity:1;paint-order:normal" />
      </g>
      <path
         id="path7960"
         d="m -451.6777,35.297369 c 0.1964,-0.007 0.31173,0.0571 0.48853,0.25283 0.20202,0.22361 0.25026,0.34125 0.29249,0.71296 0.0429,0.37744 -0.002,0.62158 -0.12013,0.65247 -0.0408,0.0107 -0.0685,0.0531 -0.0685,0.10544 0,0.14893 0.0417,0.20786 0.14681,0.20802 0.0553,0 0.16046,0.0379 0.23371,0.084 0.22684,0.14286 0.31031,0.18219 0.38694,0.18219 0.15197,0 0.41205,0.0865 0.41205,0.13698 0,0.0285 0.0426,0.0625 0.0947,0.0756 0.12925,0.0325 0.31549,0.2536 0.42789,0.50822 0.0513,0.11622 0.13441,0.29856 0.18477,0.40521 0.0504,0.10664 0.0916,0.21315 0.0916,0.23656 0,0.0944 0.12616,0.40857 0.17549,0.43702 0.029,0.0167 0.0528,0.0735 0.0528,0.12613 0,0.0527 0.0189,0.13097 0.0419,0.17407 0.0286,0.0535 0.0299,0.10401 0.004,0.15922 -0.0209,0.0445 -0.0579,0.18363 -0.0823,0.30919 -0.0562,0.28965 -0.10687,0.45555 -0.19746,0.64604 -0.061,0.1282 -0.0662,0.18071 -0.0335,0.34242 0.0212,0.10506 0.0653,0.33649 0.098,0.51436 0.0327,0.17787 0.0767,0.37481 0.0977,0.43759 0.0735,0.21922 0.17038,2.29587 0.10972,2.3509 -0.0105,0.009 -0.1473,0.0271 -0.30405,0.0391 l -0.28507,0.0217 -0.1471,-0.15952 c -0.0809,-0.0878 -0.13286,-0.17898 -0.19861,-0.273799 -0.0217,-0.0312 -0.10344,-0.238141 -0.14482,-0.255681 -0.0222,-0.009 -0.0254,0.073 -0.0344,0.11044 -0.0145,0.0603 -0.0132,0.0397 -0.0317,0.183341 -0.0135,0.10463 -0.0447,0.33576 -0.0693,0.513639 -0.0936,0.674681 -0.10573,0.819901 -0.0739,0.881601 0.018,0.0349 0.0281,0.47493 0.0236,0.712529 -0.002,0.12491 -0.0345,0.19233 -0.0268,0.37382 0.005,0.1277 0.0102,0.20468 0.008,0.30704 l -0.0247,0.33358 -0.0128,0.2808 c 0,0 -0.007,0.17552 -0.0227,0.261521 -0.0134,0.0716 -0.0396,0.140309 -0.0614,0.209879 -0.0152,0.0487 -0.0247,0.10003 -0.0484,0.14525 -0.015,0.0286 -0.0404,0.0504 -0.0581,0.0775 -0.0115,0.0176 -0.0287,0.0339 -0.031,0.0548 -0.002,0.0202 0.011,0.0391 0.018,0.0582 0.0133,0.0362 0.0399,0.0684 0.0452,0.10658 0.004,0.0258 -0.0128,0.0516 -0.01,0.0775 0.005,0.0389 0.0389,0.0707 0.042,0.109719 0.002,0.0308 -0.0187,0.0596 -0.0194,0.0905 -5.5e-4,0.0262 -0.002,0.0559 0.013,0.0775 0.0255,0.0369 0.0776,0.0451 0.11628,0.0678 0.0528,0.031 0.10801,0.0584 0.15809,0.0936 0.04,0.0281 0.0793,0.0582 0.113,0.0936 0.0371,0.0389 0.0616,0.0885 0.0969,0.12912 0.0439,0.0506 0.0979,0.0918 0.14211,0.14211 0.0314,0.0357 0.058,0.0754 0.0872,0.113 0.0268,0.0345 0.0642,0.0628 0.0806,0.1033 0.0154,0.0381 0.0119,0.0816 0.013,0.1227 10e-4,0.0399 0.01,0.083 -0.006,0.11942 -0.0143,0.032 -0.0455,0.0544 -0.0743,0.0743 -0.0534,0.037 -0.11425,0.0657 -0.17749,0.0806 -0.0849,0.02 -0.17509,0.0215 -0.26153,0.01 -0.0705,-0.01 -0.14031,-0.0317 -0.20346,-0.0645 -0.06,-0.0311 -0.11025,-0.0785 -0.16137,-0.1227 -0.057,-0.0493 -0.11701,-0.0973 -0.16137,-0.158229 -0.0283,-0.0389 -0.0464,-0.0846 -0.0646,-0.129121 -0.0132,-0.0324 -0.0145,-0.0698 -0.0322,-0.100019 -0.0216,-0.0368 -0.0532,-0.0679 -0.0872,-0.0937 -0.056,-0.0425 -0.12559,-0.0631 -0.18733,-0.0967 -0.061,-0.0332 -0.12202,-0.0665 -0.18077,-0.103441 -0.0641,-0.0404 -0.13143,-0.0778 -0.1872,-0.12913 -0.0337,-0.0311 -0.0688,-0.0644 -0.0872,-0.106429 -0.0157,-0.0359 -0.0152,-0.0772 -0.0161,-0.11629 -0.001,-0.0465 0.0114,-0.0924 0.0128,-0.13882 0.002,-0.0678 -0.007,-0.13551 -0.006,-0.203321 8.2e-4,-0.126049 0.0161,-0.377809 0.0161,-0.377809 0,0 -0.0827,0.0261 -0.11942,0.0485 -0.0521,0.0318 -0.1013,0.0713 -0.13883,0.119419 -0.0266,0.0341 -0.0336,0.0805 -0.0581,0.11614 -0.047,0.0685 -0.103,0.13227 -0.16793,0.18406 -0.0512,0.0408 -0.11088,0.0709 -0.17107,0.0969 -0.0538,0.0232 -0.10969,0.0455 -0.16793,0.0516 -0.0494,0.005 -0.1,-0.002 -0.14852,-0.013 -0.0558,-0.0123 -0.11144,-0.0302 -0.16138,-0.0581 -0.0529,-0.0295 -0.11645,-0.0582 -0.1421,-0.113011 -0.0196,-0.0419 -0.007,-0.0937 0.003,-0.13882 0.0139,-0.062 0.0389,-0.12379 0.0775,-0.174349 0.0371,-0.0486 0.0941,-0.0783 0.14211,-0.116141 0.0573,-0.0452 0.11524,-0.0896 0.17435,-0.132409 0.0614,-0.0444 0.1312,-0.078 0.18719,-0.12913 0.0249,-0.0227 0.0678,-0.044 0.0646,-0.0775 -10e-4,-0.0152 -0.0297,-0.0149 -0.0355,-0.0291 -0.0262,-0.0641 0.0102,-0.138441 0.0226,-0.2066 0.008,-0.047 0.0442,-0.0918 0.0355,-0.13883 -0.008,-0.044 -0.0707,-0.0654 -0.0775,-0.10971 -0.0116,-0.0761 0.049,-0.14589 0.071,-0.219591 0.0147,-0.049 0.0339,-0.0973 0.0408,-0.14796 0.004,-0.0328 0.004,-0.0665 0,-0.0994 -0.0213,-0.192419 -0.0571,-0.30977 -0.12698,-0.566719 -0.0998,-0.367021 -0.12501,-0.52829 -0.11814,-0.75248 0.006,-0.203041 -0.0125,-0.34575 -0.0648,-0.49466 -0.0793,-0.22553 -0.15657,-0.56011 -0.24312,-1.05167 -0.0459,-0.26058 -0.26474,-1.02632 -0.30719,-1.07494 -0.0278,-0.0318 -0.12898,0.0848 -0.12898,0.14867 0,0.0825 -0.11602,0.13402 -0.15609,0.0692 -0.016,-0.0259 -0.0216,-0.0593 -0.0124,-0.0742 0.009,-0.0149 -0.008,-0.1355 -0.0381,-0.268099 -0.0381,-0.16733 -0.045,-0.29349 -0.0224,-0.41233 0.0262,-0.137501 0.0191,-0.1937 -0.0354,-0.28536 -0.0373,-0.0628 -0.0869,-0.21687 -0.11014,-0.34243 -0.0498,-0.26896 -0.0269,-1.07035 0.0325,-1.14198 0.0286,-0.0345 0.0291,-0.0573 10e-4,-0.0743 -0.0645,-0.0399 -0.0462,-0.29802 0.0532,-0.75406 0.0512,-0.23464 0.12126,-0.55899 0.1558,-0.7208 0.0671,-0.31437 0.2463,-0.60889 0.40021,-0.65774 0.0434,-0.0138 0.10779,-0.0715 0.14296,-0.12827 0.073,-0.11787 0.32697,-0.35188 0.454,-0.41847 0.0411,-0.0215 0.0623,-0.0304 0.0735,-0.0193 l 0.0318,-0.037 -0.0808,-0.0678 -0.10972,-0.1421 -0.0742,-0.23571 -0.0419,-0.16778 -0.0485,-0.15495 -0.003,-0.17336 c -0.0143,-0.0528 -0.0473,-0.16048 -0.0823,-0.26595 -0.0808,-0.24304 -0.0562,-0.55321 0.0537,-0.67458 0.0345,-0.0381 0.0628,-0.0891 0.0628,-0.11329 0,-0.0859 0.28284,-0.23226 0.49738,-0.25739 0.0318,-0.004 0.0615,-0.006 0.0896,-0.007 z m 0.65761,2.00534 c -0.0197,0.002 -0.0496,0.0364 -0.10402,0.11158 -0.1278,0.17643 -0.22598,0.28187 -0.37681,0.37481 -0.0609,0.0376 -0.16498,0.0785 -0.20374,0.0679 -0.0748,-0.0692 -0.13477,-0.11024 -0.19105,-0.18662 -0.0182,-0.0247 -0.0695,-0.0606 -0.0695,-0.0606 0.004,0.0156 0.005,0.0402 0.005,0.078 0,0.0655 -0.0332,0.16574 -0.0738,0.22272 -0.084,0.11802 -0.22935,0.62318 -0.25268,0.87846 -0.009,0.0942 -0.0222,0.24884 -0.0303,0.34372 -0.0145,0.17112 0.0928,0.46674 0.11143,0.7034 0.01,0.12255 0.007,0.24608 -1.4e-4,0.36882 -0.001,0.0222 -0.005,0.0476 -0.008,0.0722 l -0.003,0.003 -0.002,0.0345 c -0.003,0.0227 -0.006,0.0457 -0.007,0.0601 -2.2e-4,0.0122 8.2e-4,0.0243 0.002,0.036 l -0.0163,0.3654 h -1.5e-4 l -0.0184,0.35855 c -0.006,0.0135 -0.008,0.0253 -0.002,0.0314 0.0108,0.0108 0.031,0.008 0.0449,-0.006 0.014,-0.0139 0.0254,-0.0431 0.0254,-0.0648 l -8.2e-4,-0.25297 0.0415,-0.443591 c 0.0196,-0.0718 0.0349,-0.177079 0.032,-0.25966 -5.6e-4,-0.0118 -10e-4,-0.0206 -0.003,-0.027 l 0.0234,-0.22843 c 0.0153,-0.0663 0.0312,-0.16664 0.0454,-0.2962 0.024,-0.21972 0.0882,-0.58349 0.14268,-0.80827 0.10893,-0.44949 0.1214,-0.5858 0.0554,-0.6078 -0.0317,-0.0106 -0.029,-0.0455 0.01,-0.12656 0.0646,-0.13482 0.23174,-0.18017 0.3858,-0.10472 0.12427,0.0609 0.12574,0.068 0.0327,0.16793 -0.0517,0.0555 -0.10202,0.11682 -0.0909,0.21715 0.051,0.46018 0.0632,0.87805 0.0274,1.50996 -0.031,0.51706 -0.0315,0.78456 -0.0534,1.17653 -0.005,0.0946 0.002,0.18417 -0.0188,0.283489 -0.0296,0.0454 -0.10987,0.12945 -0.13426,0.163801 -0.0886,0.11506 -0.0311,0.14173 0.28892,0.144959 0.1633,0.002 0.16707,-0.003 0.16679,-0.123709 -8.2e-4,-0.21272 -0.0339,-0.25516 -0.0445,-0.38337 -0.0417,-0.50417 0.005,-1.03967 -0.0749,-1.5158 -0.069,-0.36207 -0.0277,-0.73264 0.11785,-1.05896 0.07,-0.15694 0.0707,-0.29376 0.1354,-0.42904 0.0201,-0.042 -0.0388,0.0875 0.0773,-0.116281 0.0751,-0.131909 0.0461,-0.231959 -0.0591,-0.204449 -0.094,0.0246 -0.0949,0.033 0.0211,-0.19062 0.0559,-0.10777 0.0864,-0.21359 0.0721,-0.25082 -0.008,-0.0197 -0.0157,-0.03 -0.0275,-0.0287 z m 1.09406,1.77844 c 0,0 -0.0302,0.18682 -0.0292,0.28097 0.002,0.13667 0.0295,0.2719 0.0516,0.40678 0.022,0.13432 0.0807,0.40029 0.0807,0.40029 0,0 0.0815,-0.14434 0.11632,-0.21947 0.0292,-0.0631 0.0774,-0.19375 0.0774,-0.19375 0,0 -0.0506,-0.14253 -0.0775,-0.21317 -0.0393,-0.10285 -0.0729,-0.20846 -0.12268,-0.30666 -0.0275,-0.0543 -0.0967,-0.15499 -0.0967,-0.15499 z"
         style="opacity:1;fill:#dfbe51;fill-opacity:1;stroke-width:0.03804738" />
      <path
         id="path9543"
         d="m -456.34723,38.193759 c -0.21875,0.006 -0.56855,0.27597 -0.73745,0.60721 -0.0582,0.11423 -0.14102,0.27389 -0.18389,0.35477 -0.0438,0.0827 -0.0842,0.25337 -0.0922,0.38997 -0.008,0.13361 -0.0267,0.26301 -0.0419,0.28766 -0.0301,0.0487 -0.14818,0.64553 -0.14569,0.80914 -0.0835,0.0811 -0.0992,0.224 -0.19377,0.41445 l -0.12665,0.0939 -0.54081,0.42088 0.0421,0.1102 -0.63785,0.45008 -0.23641,0.29466 -0.0195,0.18776 0.43061,0.63154 0.81931,0.8548 -0.007,0.0615 0.21366,0.21051 0.0615,-0.0195 0.0972,0.0551 0.11134,0.0197 -0.0459,0.23442 -0.0321,0.56328 -0.0595,0.54038 -0.23398,1.0842 c 0,0 -0.0554,0.43851 0.005,0.47169 0.0596,0.033 0.87239,-0.0532 0.87239,-0.0532 0.0307,0.12251 0.1831,0.4581 0.24043,0.57917 l 0.0916,0.38468 -0.009,0.29767 0.009,0.76478 0.16028,0.72814 0.14426,0.53123 0.18547,0.46482 -0.016,0.0527 -0.002,0.0995 c 0,0 -0.2277,-0.0156 -0.27034,0.004 -0.0305,0.014 -0.03,0.0856 0,0.10074 0.0272,0.0137 0.16572,0.0398 0.16572,0.0398 h 1.5e-4 c -0.005,0.0117 -0.008,0.0231 -0.0108,0.0349 h -5.6e-4 l -0.001,0.006 c 0,0 -0.16601,0.28174 -0.16744,0.2971 -8.2e-4,0.01 0.008,0.0242 0.0172,0.023 0.0123,-0.002 0.15142,-0.11291 0.15142,-0.11291 5.5e-4,0.0256 8.2e-4,0.0511 0.002,0.0769 0.0133,0.21546 -0.0388,0.52393 0.0565,0.64513 0.0642,0.0816 0.1969,0.1768 0.34804,0.19292 0.11713,0.0125 0.25697,-0.0393 0.31098,-0.0749 0.11699,-0.0771 0.1111,-0.21056 -0.0352,-0.81086 -0.0319,-0.13078 -0.0306,-0.18288 0.005,-0.20479 0.0341,-0.0211 0.0244,-0.0561 -0.0341,-0.12351 -0.0206,-0.0238 -0.039,-0.0487 -0.0534,-0.071 l -0.0675,-0.18833 -0.071,-0.0435 -0.0378,-0.10991 -0.0388,-0.39183 -0.003,-0.36923 0.0259,-0.489 0.0259,-0.43391 -0.0418,-0.6158 v -8.2e-4 l -0.023,-0.40515 0.14053,0.5338 0.0328,0.13323 0.0728,0.14727 c 0,0 0.005,0.42412 0.0275,0.63469 0.008,0.0795 0.0241,0.15817 0.0405,0.23642 0.022,0.10507 0.0474,0.20956 0.0777,0.31255 0.0156,0.053 0.0448,0.10238 0.0535,0.15699 0.0132,0.0831 -0.004,0.16839 -0.003,0.25259 0.001,0.0913 0.0112,0.27364 0.0112,0.27363 0,0 -0.004,0.0174 -0.01,0.0243 -0.0164,0.0214 -0.053,0.0243 -0.0647,0.0485 -0.0157,0.0325 -0.01,0.0697 -0.003,0.10705 0,0 -0.13308,0.0191 -0.15213,0.0425 -0.0115,0.0142 0.004,0.0494 0.0225,0.0499 0.0282,8.21e-4 0.1371,-0.0129 0.1371,-0.0129 0.011,0.17342 0.0347,0.41973 0.0419,0.51419 -0.017,0.18068 10e-4,0.38018 0.094,0.53623 0.0391,0.0658 0.10752,0.11743 0.17961,0.14312 0.0794,0.0283 0.17294,0.0298 0.25287,0.003 0.0903,-0.0303 0.18917,-0.0872 0.22569,-0.17516 0.0692,-0.166731 0.0496,-0.190281 -0.0668,-0.537381 -0.0787,-0.234569 -0.12201,-0.36654 -0.10176,-0.403429 0,0 0.0372,0.004 0.0558,0.006 0.0326,0.003 0.0712,0.0264 0.0979,0.007 0.0128,-0.009 0.0164,-0.0304 0.0122,-0.0455 -0.009,-0.0306 -0.0434,-0.0473 -0.0695,-0.0654 -0.0486,-0.0337 -0.15928,-0.0784 -0.15927,-0.0784 l -0.0552,-0.14654 -0.0259,-0.0127 c 0,0 -0.008,-0.17663 0.003,-0.263899 0.0151,-0.119091 0.0605,-0.232441 0.0859,-0.349761 0.0254,-0.11727 0.0392,-0.23708 0.0666,-0.35391 0.007,-0.0319 0.0225,-0.0621 0.0266,-0.0946 0.0409,-0.32307 0.0548,-0.68033 -0.0213,-0.97672 -0.0485,-0.18866 -0.0187,-0.43074 -0.0168,-0.64614 10e-4,-0.14448 0.004,-0.28936 0.0192,-0.43306 0.0148,-0.14205 0.0135,-0.305419 0.0698,-0.422599 0.0134,-0.0319 0.0239,-0.0633 0.0318,-0.0903 0,0 0.12444,0.0359 0.18804,0.0474 0.0727,0.0131 0.16545,0.0322 0.2201,0.0243 0.007,-0.0353 0.009,-0.32134 0.006,-0.48199 -0.004,-0.22264 -0.0161,-0.44513 -0.0328,-0.66718 -0.0247,-0.32835 -0.0556,-0.65638 -0.0993,-0.98273 -0.046,-0.34314 -0.17817,-1.03139 -0.17817,-1.03139 0.0238,-0.0653 0.0999,-0.13214 0.1869,-0.17875 0.0677,-0.0363 0.14349,-0.0525 0.23442,-0.059 0.0654,-0.005 0.14097,-0.0356 0.20808,-0.063 0.0821,-0.0335 0.16998,-0.075 0.23585,-0.12279 0.11056,-0.0803 0.0688,-0.0946 0.0713,-0.22984 0.001,-0.0777 -0.035,-0.15156 -0.0551,-0.22668 -0.0418,-0.15646 -0.13596,-0.46639 -0.13596,-0.46639 l -0.19821,0.40013 -0.30682,0.26561 -0.10075,0.0412 -0.10533,-0.0824 -0.0687,-0.16487 -0.0824,-0.10533 -0.16944,-0.0504 -0.10533,-0.004 0.67777,-1.323481 0.0366,-0.0641 0.13838,-0.0222 c -0.0455,0.005 5.6e-4,-0.1398 -0.0223,-0.20437 -0.0726,-0.20445 -0.20579,-0.38747 -0.35319,-0.54668 -0.11538,-0.12461 -0.26803,-0.18859 -0.40543,-0.30854 l -0.19878,-0.14511 0.0451,-0.27191 c 0.0259,-0.156129 0.0303,-0.29953 0.0104,-0.3366 -0.019,-0.0355 -0.0478,-0.15542 -0.0641,-0.266469 -0.0399,-0.27179 -0.18861,-0.705521 -0.31727,-0.92506 -0.13361,-0.228 -0.28464,-0.3469 -0.44064,-0.3469 -0.0674,0 -0.15595,-0.0302 -0.19663,-0.067 -0.0326,-0.0295 -0.0759,-0.0424 -0.12623,-0.0412 z m -0.35262,2.39222 h 1.4e-4 c 0.0282,0.1526 0.0234,0.33236 0.0611,0.47542 0.0601,-0.001 0.0893,0.0294 0.1278,0.0544 0.0996,0.0646 0.0928,0.1651 0.2576,0.24114 0.0602,-0.0632 0.11038,-0.26819 0.17459,-0.29353 0.0894,-0.0353 0.19795,-0.19023 0.21424,-0.18561 h 1.4e-4 c 0.0314,0.0121 0.0343,-0.0266 0.0521,-0.0593 0.0382,-0.0574 0.0839,-0.12499 0.11406,-0.14897 0.0441,0.0219 0.1298,0.0812 0.18404,0.13324 0.0845,0.081 0.17806,0.20987 0.21524,0.27405 0.003,0.0331 0.009,0.0707 0.002,0.0707 -0.007,0 -0.0864,-0.0479 -0.1663,-0.0937 -0.0799,-0.0458 -0.15203,-0.0829 -0.16028,-0.0829 -0.008,0 -0.0539,0.0858 -0.10146,0.18991 -0.14872,0.32528 -0.51597,0.90733 -0.54955,0.87096 -0.0467,-0.0505 -0.25417,-0.36836 -0.30926,-0.47384 -0.0873,-0.13123 -0.13376,-0.29647 -0.18146,-0.45223 -0.0114,-0.0374 -0.0432,-0.0983 -0.0665,-0.0983 -0.0156,0 -0.17703,0.12199 -0.29309,0.22154 -0.0554,0.0476 -0.0816,0.0687 -0.071,0.0418 0.008,-0.0204 0.0378,-0.10135 0.0611,-0.1504 0.027,-0.057 0.0534,-0.11517 0.0907,-0.16673 0.0562,-0.0776 0.13206,-0.14075 0.19792,-0.21123 0.0487,-0.0521 0.0982,-0.11895 0.14583,-0.15642 z m -0.0428,0.50618 0.0993,0.24272 0.45036,0.0916 -0.30024,-0.16029 -0.0944,-0.0733 -0.0936,-0.0366 z m 3.35707,0.40958 -0.34346,0.0137 -0.0687,0.18318 -0.37094,0.0641 h -0.0321 l 0.0229,-0.11449 -0.10533,0.009 0.28979,1.10653 z m -4.06905,0.57316 0.0532,0.45824 0.0183,0.85179 -0.0535,0.51834 h -0.0177 l -0.0582,-0.0421 0.0259,-0.0356 -0.15871,-0.13924 -0.11663,0.0195 -0.38855,-0.46311 -0.32385,-0.553691 0.068,-0.103609 0.45995,-0.32386 0.0711,0.0356 0.0843,-0.013 z m 1.96705,1.78987 0.15799,0.10533 0.16258,-0.0114 0.0847,-0.0481 0.12136,-0.0229 0.12135,0.0115 0.0435,0.0481 0.16257,-0.0298 -0.0668,0.12937 -1.01851,0.37209 z m 0.50661,7.19258 c 0.005,0 0.0117,0.004 0.0169,0.005 0.004,8.21e-4 0.007,0.002 0.0106,0.004 0.0381,0.0194 0.12116,0.0292 0.10762,0.0697 -0.012,0.0359 -0.083,0.0144 -0.11334,-0.008 -0.0197,-0.0146 -0.0414,-0.0496 -0.0259,-0.0687 0.001,-10e-4 0.002,-0.002 0.004,-0.002 z"
         style="opacity:1;fill:#dfbe51;fill-opacity:1;stroke-width:0.04038008" />
    </g>
  </g>
</svg>
