<?xml version="1.0" encoding="UTF-8" standalone="no"?>
<svg
   xmlns:dc="http://purl.org/dc/elements/1.1/"
   xmlns:cc="http://creativecommons.org/ns#"
   xmlns:rdf="http://www.w3.org/1999/02/22-rdf-syntax-ns#"
   xmlns:svg="http://www.w3.org/2000/svg"
   xmlns="http://www.w3.org/2000/svg"
   xmlns:xlink="http://www.w3.org/1999/xlink"
   id="svg13394"
   height="200.00029"
   width="591.80835"
   version="1.1">
  <metadata
     id="metadata13398">
    <rdf:RDF>
      <cc:Work
         rdf:about="">
        <dc:format>image/svg+xml</dc:format>
        <dc:type
           rdf:resource="http://purl.org/dc/dcmitype/StillImage" />
        <dc:title></dc:title>
      </cc:Work>
    </rdf:RDF>
  </metadata>
  <defs
     id="defs12964">
    <linearGradient
       id="red">
      <stop
         id="stop3049"
         offset="0"
         style="stop-color:#e30000;stop-opacity:1" />
      <stop
         style="stop-color:#ff0000;stop-opacity:1"
         offset="0.11"
         id="stop3057" />
      <stop
         id="stop3059"
         offset="0.82999998"
         style="stop-color:#ff0000;stop-opacity:1" />
      <stop
         style="stop-color:#b80000;stop-opacity:1"
         offset="0.95999998"
         id="stop3061" />
      <stop
         id="stop3051"
         offset="1"
         style="stop-color:#b80000;stop-opacity:1" />
    </linearGradient>
    <linearGradient
       id="green">
      <stop
         id="stop3021"
         offset="0"
         style="stop-color:#00bf00;stop-opacity:1" />
      <stop
         style="stop-color:#00ff00;stop-opacity:1"
         offset="0.11"
         id="stop3029" />
      <stop
         id="stop3031"
         offset="0.88"
         style="stop-color:#00ff00;stop-opacity:1" />
      <stop
         id="stop3023"
         offset="1"
         style="stop-color:#00d900;stop-opacity:1" />
    </linearGradient>
    <linearGradient
       id="blue">
      <stop
         id="stop3007"
         offset="0"
         style="stop-color:#002bd6;stop-opacity:1" />
      <stop
         style="stop-color:#0033ff;stop-opacity:1"
         offset="0.14"
         id="stop3015" />
      <stop
         id="stop3017"
         offset="0.41"
         style="stop-color:#005cff;stop-opacity:1" />
      <stop
         style="stop-color:#0033ff;stop-opacity:1"
         offset="0.86000001"
         id="stop3019" />
      <stop
         id="stop3009"
         offset="1"
         style="stop-color:#0029cc;stop-opacity:1" />
    </linearGradient>
    <linearGradient
       id="yellow">
      <stop
         id="stop2993"
         offset="0"
         style="stop-color:#ffd900;stop-opacity:1" />
      <stop
         style="stop-color:#ffd900;stop-opacity:1"
         offset="0.13"
         id="stop3001" />
      <stop
         id="stop3003"
         offset="0.47999999"
         style="stop-color:#ffff00;stop-opacity:1" />
      <stop
         style="stop-color:#ffd900;stop-opacity:1"
         offset="0.875"
         id="stop3005" />
      <stop
         id="stop2995"
         offset="1"
         style="stop-color:#ffd900;stop-opacity:1" />
    </linearGradient>
    <linearGradient
       id="white">
      <stop
         id="stop2977"
         offset="0"
         style="stop-color:#d9d9d9;stop-opacity:1" />
      <stop
         style="stop-color:#ebebeb;stop-opacity:1"
         offset="0.31"
         id="stop2987" />
      <stop
         id="stop2989"
         offset="0.54000002"
         style="stop-color:#ffffff;stop-opacity:1" />
      <stop
         style="stop-color:#ffffff;stop-opacity:1"
         offset="0.72000003"
         id="stop2991" />
      <stop
         id="stop2979"
         offset="1"
         style="stop-color:#d9d9d9;stop-opacity:1" />
    </linearGradient>
    <linearGradient
       gradientTransform="matrix(1.535082,0,0,1.535082,-63.728083,-55.95351)"
       y2="166.73605"
       x2="66.277748"
       y1="35.693939"
       x1="66.277748"
       gradientUnits="userSpaceOnUse"
       id="linearGradient2985"
       xlink:href="#white" />
    <linearGradient
       gradientTransform="matrix(1.535082,0,0,1.535082,-63.728083,-55.95351)"
       gradientUnits="userSpaceOnUse"
       y2="139.44679"
       x2="184.64365"
       y1="139.44679"
       x1="41.51445"
       id="linearGradient2999"
       xlink:href="#yellow" />
    <linearGradient
       gradientTransform="matrix(1.535082,0,0,1.535082,-63.728083,-55.95351)"
       gradientUnits="userSpaceOnUse"
       y2="166.73605"
       x2="189.02338"
       y1="57.032749"
       x1="189.04605"
       id="linearGradient3013"
       xlink:href="#blue" />
    <linearGradient
       gradientTransform="scale(1.535082)"
       gradientUnits="userSpaceOnUse"
       y2="31.0994"
       x2="167.6922"
       y1="31.0994"
       x1="0"
       id="linearGradient3027"
       xlink:href="#green" />
    <linearGradient
       gradientUnits="userSpaceOnUse"
       y2="130.29269"
       x2="63.0625"
       y1="0.0017"
       x1="63.0625"
       id="linearGradient3055"
       xlink:href="#red" />
    <linearGradient
       y2="130.29269"
       x2="63.0625"
       y1="0.0017"
       x1="63.0625"
       gradientUnits="userSpaceOnUse"
       id="linearGradient3063"
       xlink:href="#red" />
    <linearGradient
       y2="130.29269"
       x2="63.0625"
       y1="0.0017"
       x1="63.0625"
       gradientUnits="userSpaceOnUse"
       id="linearGradient3065"
       xlink:href="#red" />
  </defs>
  <defs
     id="defs12980" />
  <defs
     id="defs12996" />
  <defs
     id="defs13010" />
  <defs
     id="defs13028" />
  <defs
     id="defs13044" />
  <defs
     id="defs13306" />
  <defs
     id="defs13322" />
  <defs
     id="defs13338" />
  <defs
     id="defs13352" />
  <defs
     id="defs13370" />
  <defs
     id="defs13386" />
  <path
     id="path1838"
     style="fill:url(#linearGradient3027);fill-opacity:1;stroke-width:1.53508198"
     d="M 55.634902,84.630299 C 56.140712,76.49989 56.51343,68.348298 56.723736,60.175214 38.035034,64.846162 19.113306,68.714261 0,71.733307 V 95.480258 C 18.728614,92.626234 37.289598,89.016335 55.634902,84.630299 Z M 132.44503,36.292562 c 2.75548,7.33846 5.77575,14.567621 9.00633,21.700994 C 181.78257,42.464973 220.60418,23.050791 257.42128,0 H 210.92579 C 185.55887,13.827558 159.3521,25.959158 132.44503,36.292562 Z M 119.31901,66.04153 c -13.13662,4.537702 -26.410473,8.684112 -39.82003,12.409756 0.421994,-8.191504 0.692168,-16.4045 0.82265,-24.640061 10.097771,-2.931086 20.11433,-6.107017 30.04969,-9.519965 2.75271,7.34767 5.74367,14.594178 8.94769,21.75027 z" />
  <path
     id="path1854"
     style="fill:url(#linearGradient2999);fill-opacity:1;stroke-width:1.53508198"
     d="m 0,116.21753 v 23.70826 c 16.323448,2.3255 32.485712,5.31906 48.453635,9.01554 1.256618,-7.74157 2.340079,-15.51799 3.319768,-23.3182 C 34.712656,121.73891 17.446821,118.60151 0,116.21753 Z m 105.53013,24.24876 c -10.170988,-3.3477 -20.461719,-6.33743 -30.811088,-9.13404 -1.014383,7.82293 -2.151111,15.61915 -3.436895,23.38744 6.893746,1.89812 13.74497,3.94009 20.556131,6.09519 4.33154,-6.94302 8.927732,-13.70506 13.691852,-20.34859 z M 219.71506,200 h -33.96461 c -22.98816,-12.12515 -46.70042,-22.56632 -70.98511,-31.39811 4.40461,-6.82466 9.05821,-13.47878 13.91537,-19.98799 23.64839,8.89319 46.72712,19.34495 69.17094,31.24506 7.00289,6.9751 14.2867,13.69845 21.86341,20.14104 z" />
  <g
     transform="scale(1.535082)"
     style="fill:url(#linearGradient3055);fill-opacity:1"
     id="g3047">
    <path
       d="m 92.145801,37.7788 c -2.1045,-4.6469 -4.072,-9.3562 -5.867,-14.1367 l -0.1361,-0.3624 -0.1353,-0.3625 -0.1344,-0.3625 -0.1335,-0.3633 -0.1336,-0.3624 v -9e-4 l -0.1326,-0.3633 -0.1318,-0.3634 -0.1318,-0.3642 -0.1301,-0.3641 -0.1309,-0.3642 -0.1293,-0.3651 -0.1292,-0.3642 v -9e-4 l -0.1283,-0.3641 v -9e-4 l -0.1275,-0.3651 -0.1266,-0.365 v -9e-4 l -0.1266,-0.3651 v -8e-4 l -0.1257,-0.366 -0.1249,-0.3659 v -8e-4 l -0.1248,-0.366 -0.124,-0.3668 -0.1231,-0.3668 v -8e-4 l -0.1232,-0.3668 -0.1214,-0.3668 v -9e-4 l -0.1214,-0.3668 v -8e-4 l -0.1214,-0.3677 v -9e-4 l -0.1196,-0.3668 v -8e-4 l -0.1197,-0.3677 v -9e-4 l -0.1188,-0.3676 -9e-4,-9e-4 -0.1179,-0.3676 v -9e-4 l -0.1179,-0.3685 v -9e-4 l -0.1171,-0.3685 v -9e-4 l -0.1162,-0.3685 v -9e-4 l -0.1162,-0.3685 v -9e-4 l -0.1153,-0.3694 v -9e-4 l -0.1145,-0.3693 v -9e-4 l -0.1136,-0.3694 -8e-4,-9e-4 -0.1127,-0.3694 v -8e-4 l -0.1128,-0.3703 -8e-4,-9e-4 -0.1119,-0.3702 v -9e-4 l -0.1119,-0.3703 v -8e-4 l -0.1109,-0.3703 v -9e-4 l -0.1102,-0.3702 V 8.2247 l -0.1092,-0.3703 -9e-4,-9e-4 -0.1084,-0.3711 -9e-4,-9e-4 -0.1083,-0.3711 V 7.1087 l -0.1076,-0.3712 v -8e-4 l -0.1075,-0.3712 V 6.3638 l -0.1066,-0.3711 V 5.9909 l -0.1058,-0.3711 -9e-4,-0.0017 -0.1049,-0.372 -9e-4,-9e-4 -0.104,-0.372 -9e-4,-0.0017 -0.1032,-0.372 -9e-4,-0.0017 -0.1032,-0.372 -8e-4,-0.0018 -0.1023,-0.3728 -9e-4,-9e-4 -0.1015,-0.3729 -8e-4,-0.0017 -0.1015,-0.3729 v -8e-4 l -0.1014,-0.3738 v -8e-4 l -0.1006,-0.3738 V 2.2519 l -0.0997,-0.3729 -9e-4,-0.0017 -0.0989,-0.3737 -8e-4,-9e-4 -0.098,-0.3737 -9e-4,-0.0018 -0.0971,-0.3737 -9e-4,-0.0017 -0.0971,-0.3746 -9e-4,-0.0017 -0.0962,-0.3738 h -15.7738 l 0.1109,0.4579 v 0.0017 l 0.1119,0.4578 v 0.0018 l 0.1127,0.4569 v 0.0018 l 0.1136,0.457 v 0.0017 l 0.1153,0.457 V 2.297 l 0.1154,0.457 v 0.0017 l 0.1162,0.4561 v 0.0017 l 0.117,0.4562 v 0.0017 l 0.118,0.4561 v 0.0017 l 0.1188,0.4553 v 0.0017 l 0.1196,0.4552 v 0.0018 l 0.1205,0.4552 v 0.0018 l 0.1214,0.4552 v 9e-4 l 0.1223,0.4552 v 9e-4 l 0.1231,0.4552 v 9e-4 l 0.124,0.4543 v 0.0018 l 0.1249,0.4535 v 0.0017 l 0.1257,0.4535 v 0.0018 l 0.1266,0.4535 v 8e-4 l 0.1275,0.4535 v 0.0018 l 0.1283,0.4526 V 9.599 l 0.1292,0.4527 v 8e-4 l 0.1301,0.4527 v 9e-4 l 0.1309,0.4526 v 9e-4 l 0.131,0.4526 v 9e-4 l 0.1327,0.4517 v 9e-4 l 0.1335,0.4518 v 8e-4 l 0.1344,0.4518 v 9e-4 l 0.1353,0.4509 v 9e-4 l 0.1361,0.4509 v 8e-4 l 0.1361,0.4509 v 9e-4 l 0.1379,0.45 v 9e-4 l 0.1388,0.45 v 9e-4 l 0.1396,0.45 v 9e-4 l 0.1396,0.4492 v 8e-4 l 0.1413,0.4492 v 9e-4 l 0.1422,0.4492 v 8e-4 l 0.1422,0.4483 v 9e-4 l 0.144,0.4483 v 9e-4 l 0.1448,0.4483 0.1448,0.4483 v 8e-4 l 0.1465,0.4475 v 8e-4 l 0.1474,0.4466 v 9e-4 l 0.1475,0.4474 0.1491,0.4466 v 8e-4 l 0.1491,0.4466 0.1509,0.4466 v 8e-4 l 0.1509,0.4457 0.1526,0.4458 v 8e-4 l 0.1526,0.4449 v 8e-4 l 0.1544,0.4449 0.1543,0.4448 0.1561,0.4448 0.1561,0.444 v 9e-4 l 0.1569,0.4439 0.1587,0.4431 v 9e-4 l 0.1587,0.4431 0.1596,0.4431 0.1612,0.4422 v 9e-4 l 0.1613,0.4422 0.1622,0.4423 0.1639,0.4413 0.1639,0.4414 0.1647,0.4414 c 1.7932,4.7865 3.7416,9.5071 5.8288,14.1688 3.5387,7.9125 7.5015,15.629 11.8536,23.130499 C 93.195001,62.3037 96.932301,58.5707 100.7919,54.9574 97.670201,49.3541 94.792201,43.6206 92.145801,37.7788 Z"
       style="fill:url(#linearGradient3063);fill-opacity:1"
       id="path1870" />
    <path
       d="m 108.8821,68.364899 c -3.7702,3.6298 -7.3887,7.4043 -10.898799,11.2735 8.996399,13.4369 19.341999,26.013701 30.903399,37.527301 4.5619,4.5438 9.3068,8.9236 14.2425,13.1205 h 24.7893 C 144.2616,113.3114 124.3577,92.207299 108.8821,68.364899 Z"
       style="fill:url(#linearGradient3065);fill-opacity:1"
       id="path1884" />
  </g>
  <path
     id="path1902"
     style="fill:url(#linearGradient2985);fill-opacity:1;stroke-width:1.53508198"
     d="m 55.519157,0.00261 0.04252,0.666839 v 0.0028 l 0.04268,0.665458 v 0.0028 l 0.04252,0.666839 v 0.0026 l 0.04129,0.666993 v 0.0012 l 0.03991,0.666993 v 0.0026 l 0.03991,0.666839 v 0.0028 l 0.03991,0.666839 v 0.0026 l 0.03868,0.666993 v 0.0012 l 0.03853,0.668221 v 0.0014 l 0.0373,0.668221 v 0.0014 l 0.0373,0.668067 v 0.0014 l 0.03592,0.668221 v 0.0014 l 0.03592,0.668221 v 0.0012 l 0.03592,0.668221 v 0.0014 l 0.03331,0.668221 v 0.0026 l 0.03469,0.666994 v 0.0026 l 0.03316,0.668221 v 0.0014 l 0.03193,0.668221 v 0.0012 l 0.03208,0.668221 v 0.0028 l 0.03193,0.668067 v 0.0014 l 0.03055,0.668221 v 0.0014 l 0.02932,0.668221 v 0.0026 l 0.02932,0.668222 v 0.0014 l 0.02917,0.668221 v 0.0026 l 0.02809,0.668221 v 0.0014 l 0.02794,0.669449 v 0.0014 l 0.02656,0.668221 v 0.0014 l 0.02533,0.66945 v 0.0014 l 0.02533,0.669603 v 0.0012 l 0.02517,0.668221 v 0.0014 l 0.02395,0.669449 v 0.0014 l 0.02395,0.669602 v 0.0012 l 0.02272,0.669602 v 0.0014 l 0.02134,0.669449 v 0.0014 l 0.02118,0.669602 0.02134,0.66945 v 0.0014 l 0.01996,0.669603 v 0.0012 l 0.01873,0.669603 v 0.0014 l 0.01857,0.66945 v 0.0014 l 0.01857,0.670831 0.01735,0.670831 0.01597,0.670984 v 0.0012 l 0.01596,0.669603 v 0.0014 l 0.01474,0.669449 v 0.0014 l 0.01458,0.669602 v 0.0012 l 0.01335,0.670985 0.0132,0.670831 v 0.0014 l 0.01197,0.669449 v 0.0014 l 0.01197,0.670831 0.01075,0.670984 0.0094,0.670831 v 0.0014 l 0.0092,0.67083 0.0094,0.670831 v 0.0014 l 0.008,0.670831 0.0066,0.67083 v 0.0014 l 0.0068,0.670831 0.0052,0.670984 v 0.0012 l 0.0054,0.670985 0.004,0.672212 0.0026,0.670831 0.0028,0.672212 0.0026,0.672213 0.0014,0.67083 v 0.672213 c 0,5.763772 -0.09318,11.514036 -0.241008,17.25908 -0.210306,8.173084 -0.583024,16.324676 -1.088834,24.455085 -0.859799,13.73714 -2.15372,27.404891 -3.861499,40.992831 -0.979689,7.80021 -2.06315,15.57663 -3.319768,23.3182 -2.78863,17.16866 -6.292147,34.18551 -10.439939,51.05867 h 24.175546 c 3.547421,-14.97764 6.577059,-30.08039 9.092905,-45.28031 1.285784,-7.76829 2.422512,-15.56451 3.436895,-23.38744 2.270846,-17.50546 3.870862,-35.138639 4.779938,-52.880964 0.421994,-8.191504 0.692168,-16.4045 0.82265,-24.640061 0.05588,-3.629855 0.1225,-7.259863 0.1225,-10.895091 v -0.672213 l -0.0014,-0.67083 -0.0014,-0.672213 -0.0026,-0.670831 v -0.0014 l -0.004,-0.670831 -0.004,-0.672212 -0.004,-0.670985 -0.0054,-0.672212 -0.0066,-0.670831 -0.0066,-0.670831 v -0.0014 l -0.008,-0.670831 -0.0081,-0.670831 v -0.0014 l -0.0092,-0.67083 -0.0094,-0.670985 -0.01059,-0.670831 v -0.0014 l -0.01075,-0.669449 v -0.0014 l -0.01197,-0.670831 -0.01197,-0.670984 v -0.0012 l -0.0132,-0.669603 v -0.0014 l -0.01336,-0.669449 v -0.0014 l -0.01474,-0.669603 v -0.0012 l -0.01458,-0.670985 -0.01597,-0.67083 -0.01735,-0.670831 -0.01596,-0.670831 v -0.0014 l -0.01857,-0.669602 v -0.0012 l -0.01873,-0.669602 v -0.0014 l -0.01857,-0.669449 -0.01996,-0.669603 v -0.0014 l -0.01996,-0.66945 v -0.0014 l -0.02134,-0.669603 v -0.0012 l -0.02257,-0.669603 v -0.0014 l -0.02134,-0.66945 v -0.0014 l -0.02395,-0.66945 v -0.0014 l -0.02395,-0.668221 v -0.0014 l -0.02395,-0.669449 v -0.0014 l -0.02533,-0.669603 v -0.0012 l -0.02533,-0.668221 v -0.0014 l -0.02656,-0.669603 v -0.0012 l -0.02671,-0.668221 v -0.0014 l -0.02794,-0.669603 v -0.0012 l -0.02794,-0.668221 v -0.0014 l -0.02932,-0.669602 v -0.0012 l -0.02917,-0.668222 v -0.0014 l -0.02932,-0.668221 v -0.0026 l -0.0307,-0.668221 v -0.0014 l -0.03193,-0.668221 v -0.0012 l -0.03193,-0.668221 v -0.0028 l -0.03193,-0.66684 v -0.0026 l -0.03331,-0.668221 v -0.0014 l -0.03454,-0.668222 v -0.0014 l -0.03331,-0.668221 v -0.0012 l -0.03592,-0.668222 v -0.0028 l -0.03454,-0.666839 v -0.0026 l -0.03607,-0.66684 v -0.0028 l -0.03715,-0.666839 v -0.0026 l -0.0373,-0.666993 v -0.0026 l -0.03868,-0.666839 v -0.0014 l -0.03853,-0.668221 v -0.0014 l -0.03868,-0.666839 v -0.0026 L 79.178203,2.00994 v -0.0026 l -0.03991,-0.666839 v -0.0028 l -0.04129,-0.665458 v -0.0028 l -0.04114,-0.666839 z" />
  <path
     id="path1918"
     style="fill:url(#linearGradient3013);fill-opacity:1;stroke-width:1.53508198"
     d="m 154.72383,84.364115 c -5.9248,5.546712 -11.66186,11.277173 -17.20857,17.184625 -11.5234,12.25287 -22.19361,25.26699 -31.98513,38.91755 -4.76412,6.64353 -9.360312,13.40557 -13.691852,20.34859 C 83.976814,173.41637 76.931248,186.52643 70.593969,200 h 26.096242 c 5.490839,-10.78334 11.527389,-21.25521 18.075129,-31.39811 4.40461,-6.82466 9.05821,-13.47878 13.91537,-19.98799 6.81653,-9.1233 14.0658,-17.92071 21.73169,-26.36243 5.38829,-5.93954 10.94299,-11.7337 16.73055,-17.30574 18.01127,-17.339061 37.85666,-32.870407 59.33015,-46.161454 V 31.596439 c -26.07244,14.795274 -50.13885,32.534835 -71.74927,52.767676 z" />
  <path
     id="path1920"
     style="fill:#fafafa;fill-rule:evenodd;stroke-width:1.53508198;fill-opacity:1"
     d="m 260.44263,66.052583 c 0.003,0.780435 0.14936,1.483349 0.44532,2.105979 0.29182,0.625546 0.71612,1.157759 1.26798,1.597253 0.55248,0.441643 1.21502,0.777519 1.99162,1.012693 0.78074,0.232565 1.65328,0.351534 2.62238,0.354143 0.96894,-0.0026 1.84209,-0.121578 2.61869,-0.354143 0.77307,-0.235174 1.43561,-0.57105 1.98456,-1.012693 0.54833,-0.439494 0.96909,-0.971707 1.26137,-1.597253 0.29198,-0.62263 0.43781,-1.325544 0.44134,-2.105979 0,-0.578573 -0.0818,-1.129053 -0.24531,-1.650981 -0.16778,-0.522388 -0.41723,-1.000259 -0.7485,-1.434227 -0.33465,-0.434121 -0.75189,-0.811598 -1.25432,-1.131816 -0.50197,-0.317916 -1.09374,-0.566138 -1.76688,-0.741598 -0.67712,-0.175767 -1.4396,-0.263727 -2.29095,-0.266337 -0.85151,0.0026 -1.61399,0.09303 -2.29065,0.268946 -0.67713,0.177916 -1.26844,0.426293 -1.7744,0.749274 -0.50597,0.320525 -0.92658,0.700304 -1.26138,1.134272 -0.3348,0.436577 -0.58425,0.914909 -0.75142,1.434227 -0.16763,0.519318 -0.24945,1.064733 -0.24945,1.63824 z m 1.36791,0 c 0.003,-0.92765 0.1994,-1.718371 0.59131,-2.372163 0.39191,-0.651181 0.95851,-1.150083 1.69627,-1.49609 0.73714,-0.343552 1.62795,-0.516863 2.67181,-0.519472 1.03664,0.0026 1.92038,0.17592 2.65461,0.519472 0.73009,0.346007 1.28963,0.844909 1.678,1.49609 0.38469,0.653792 0.58072,1.444513 0.58425,2.372163 -0.003,0.873461 -0.20662,1.622888 -0.60605,2.25611 -0.39528,0.630304 -0.96188,1.116311 -1.69565,1.457407 -0.73377,0.343551 -1.60677,0.514099 -2.61516,0.519318 -1.02268,-0.0052 -1.90581,-0.175767 -2.64357,-0.519318 -0.74129,-0.341096 -1.31096,-0.827103 -1.71039,-1.457407 -0.39896,-0.633222 -0.6019,-1.382649 -0.60543,-2.25611 z m 19.53883,4.884017 h 1.34673 v -9.132203 h 7.50332 V 70.9366 h 1.36807 v -9.922924 h -10.21812 z m 18.70466,0 h 9.36262 v -0.837234 h -7.9947 v -3.860731 h 7.16146 v -0.790721 h -7.16146 v -3.5815 h 7.824 v -0.852738 h -9.19192 z m 18.76868,0 v -3.953758 h 3.44135 c 0.66316,0 1.27919,-0.05419 1.84932,-0.162565 0.57012,-0.108837 1.06903,-0.281687 1.49977,-0.519779 0.4312,-0.23763 0.76601,-0.544954 1.0084,-0.927343 0.23885,-0.380086 0.3635,-0.842606 0.36703,-1.382494 -0.003,-0.695239 -0.17822,-1.26368 -0.52361,-1.703174 -0.34586,-0.439033 -0.83371,-0.762168 -1.468,-0.966488 -0.63414,-0.206622 -1.38956,-0.309779 -2.26225,-0.307323 h -5.25873 V 70.9366 Z m 0,-9.054528 h 3.52732 c 0.80837,0 1.44973,0.07476 1.93098,0.229648 0.48063,0.15535 0.82249,0.390525 1.03311,0.708287 0.21015,0.314999 0.31008,0.715655 0.30655,1.201355 -0.005,0.439494 -0.0964,0.798857 -0.28184,1.075325 -0.18528,0.279078 -0.43826,0.490766 -0.766,0.64059 -0.32774,0.15274 -0.70538,0.256051 -1.13259,0.312696 -0.43136,0.0568 -0.89434,0.08289 -1.38971,0.08029 h -3.22782 z m 14.55734,9.054528 h 1.45372 l 1.62458,-3.131875 h 6.02827 l 1.62458,3.131875 h 1.45372 l -5.36573,-9.922924 h -1.45326 z m 3.48433,-3.938253 2.58692,-5.054411 2.65063,5.054411 z m 19.34633,3.938253 h 1.36807 v -9.054528 h 4.40384 v -0.868396 h -10.23976 v 0.868396 h 4.46785 z m 14.89966,0 7.88817,-8.698082 V 70.9366 h 1.36807 v -9.922924 h -1.66741 l -7.82354,8.806612 v -8.806612 h -1.34673 V 70.9366 Z m 23.32219,0 c 0.84783,-0.0026 1.5532,-0.06969 2.11627,-0.193728 0.56307,-0.126798 1.01546,-0.294582 1.35379,-0.501511 0.33894,-0.206469 0.59131,-0.431358 0.76247,-0.676818 0.16779,-0.245766 0.27785,-0.491072 0.33127,-0.731313 0.0536,-0.24285 0.0789,-0.460064 0.0748,-0.656401 0.005,-0.6848 -0.21706,-1.23789 -0.65548,-1.659117 -0.43826,-0.421226 -1.1114,-0.695085 -2.01633,-0.821882 0.76616,-0.206469 1.32155,-0.493222 1.66741,-0.86026 0.34892,-0.369495 0.52024,-0.79594 0.51318,-1.279338 -0.003,-0.50105 -0.11068,-0.917058 -0.32068,-1.247868 -0.21016,-0.330657 -0.50597,-0.589164 -0.88728,-0.780436 -0.38131,-0.188661 -0.82311,-0.322981 -1.33614,-0.400656 -0.50949,-0.07721 -1.06504,-0.116052 -1.6674,-0.113596 h -5.4936 V 70.9366 Z m -4.18985,-4.759829 h 4.16852 c 0.78734,-0.0026 1.4287,0.06447 1.92407,0.201403 0.49537,0.134473 0.85842,0.349077 1.09021,0.64105 0.23119,0.291819 0.3454,0.674208 0.34187,1.141947 0.003,0.457455 -0.11068,0.829559 -0.33834,1.116312 -0.22826,0.284144 -0.58778,0.493682 -1.08315,0.625546 -0.49537,0.131863 -1.14026,0.198793 -1.93466,0.196337 h -4.16852 z m 0,-4.325861 h 3.89082 c 0.42368,-0.0025 0.82618,0.0155 1.20734,0.05173 0.37779,0.03884 0.71658,0.116052 1.00855,0.232565 0.29228,0.116052 0.52362,0.289363 0.69125,0.519318 0.16717,0.229955 0.25298,0.537739 0.25651,0.917518 -0.003,0.361819 -0.0818,0.661467 -0.23886,0.901708 -0.15658,0.23763 -0.3741,0.423682 -0.65548,0.558155 -0.28122,0.13693 -0.61296,0.232565 -0.99074,0.289363 -0.37717,0.0545 -0.79072,0.08274 -1.23605,0.08013 h -3.93334 z m 18.51278,9.08569 v -4.852855 h 7.99471 V 70.9366 h 1.32554 v -9.922924 h -1.32554 v 4.279348 h -7.99471 v -4.279348 h -1.34672 V 70.9366 Z m 16.35293,0 h 1.45387 l 1.62443,-3.131875 h 6.02842 l 1.62442,3.131875 h 1.45388 l -5.36588,-9.922924 h -1.45327 z m 3.48432,-3.938253 2.58692,-5.054411 2.65063,5.054411 z m 21.76225,3.938253 h 1.34673 v -9.132203 h 7.50332 V 70.9366 h 1.36807 v -9.922924 h -10.21812 z m 20.05139,0 v -3.953758 h 3.44135 c 0.663,0 1.27903,-0.05419 1.84916,-0.162565 0.57013,-0.108837 1.06903,-0.281687 1.49977,-0.519779 0.43121,-0.23763 0.76601,-0.544954 1.0084,-0.927343 0.23886,-0.380086 0.36366,-0.842606 0.36719,-1.382494 -0.003,-0.695239 -0.17822,-1.26368 -0.52362,-1.703174 -0.346,-0.439033 -0.8337,-0.762168 -1.46799,-0.966488 -0.6343,-0.206622 -1.38971,-0.309779 -2.26225,-0.307323 h -5.25874 V 70.9366 Z m 0,-9.054528 h 3.52716 c 0.80853,0 1.44973,0.07476 1.93098,0.229648 0.48079,0.15535 0.82265,0.390525 1.03326,0.708287 0.21,0.314999 0.31009,0.715655 0.30656,1.201355 -0.005,0.439494 -0.0966,0.798857 -0.28184,1.075325 -0.18529,0.279078 -0.43827,0.490766 -0.76601,0.64059 -0.32774,0.15274 -0.70552,0.256051 -1.13273,0.312696 -0.43121,0.0568 -0.89419,0.08289 -1.38971,0.08029 h -3.22767 z m 15.3697,4.170511 c 0.003,0.780435 0.14952,1.483349 0.44548,2.105979 0.29182,0.625546 0.71597,1.157759 1.26798,1.597253 0.55248,0.441643 1.21487,0.777519 1.99162,1.012693 0.78059,0.232565 1.65328,0.351534 2.62222,0.354143 0.9691,-0.0026 1.8421,-0.121578 2.61885,-0.354143 0.77307,-0.235174 1.43561,-0.57105 1.98456,-1.012693 0.54833,-0.439494 0.96894,-0.971707 1.26138,-1.597253 0.29181,-0.62263 0.4378,-1.325544 0.44133,-2.105979 0,-0.578573 -0.0818,-1.129053 -0.24546,-1.650981 -0.16763,-0.522388 -0.41708,-1.000259 -0.74835,-1.434227 -0.3348,-0.434121 -0.75188,-0.811598 -1.25432,-1.131816 -0.50197,-0.317916 -1.09374,-0.566138 -1.76688,-0.741598 -0.67712,-0.175767 -1.43975,-0.263727 -2.29111,-0.266337 -0.85135,0.0026 -1.61383,0.09303 -2.29049,0.268946 -0.67713,0.177916 -1.26844,0.426293 -1.77456,0.749274 -0.50596,0.320525 -0.92657,0.700304 -1.26137,1.134272 -0.3348,0.436577 -0.58426,0.914909 -0.75143,1.434227 -0.16763,0.519318 -0.24945,1.064733 -0.24945,1.63824 z m 1.36807,0 c 0.003,-0.92765 0.19941,-1.718371 0.59131,-2.372163 0.39176,-0.651181 0.95835,-1.150083 1.69611,-1.49609 0.7373,-0.343552 1.62811,-0.516863 2.67181,-0.519472 1.0368,0.0026 1.92039,0.17592 2.65462,0.519472 0.73024,0.346007 1.28978,0.844909 1.678,1.49609 0.38485,0.653792 0.58072,1.444513 0.58425,2.372163 -0.003,0.873461 -0.20647,1.622888 -0.60589,2.25611 -0.39544,0.630304 -0.96204,1.116311 -1.69566,1.457407 -0.73377,0.343551 -1.60692,0.514099 -2.61532,0.519318 -1.02251,-0.0052 -1.90565,-0.175767 -2.64341,-0.519318 -0.74144,-0.341096 -1.31096,-0.827103 -1.71038,-1.457407 -0.39897,-0.633222 -0.60191,-1.382649 -0.60544,-2.25611 z m 20.90674,-4.170511 h 6.66963 v -0.868396 h -8.03754 V 70.9366 h 1.36791 z m 15.60564,9.054528 v -3.953758 h 3.44135 c 0.663,0 1.27903,-0.05419 1.84916,-0.162565 0.57013,-0.108837 1.06903,-0.281687 1.49978,-0.519779 0.43135,-0.23763 0.766,-0.544954 1.00839,-0.927343 0.23886,-0.380086 0.36366,-0.842606 0.36719,-1.382494 -0.003,-0.695239 -0.17822,-1.26368 -0.52361,-1.703174 -0.34601,-0.439033 -0.83371,-0.762168 -1.468,-0.966488 -0.6343,-0.206622 -1.38971,-0.309779 -2.26225,-0.307323 h -5.25873 V 70.9366 Z m 0,-9.054528 h 3.52716 c 0.80853,0 1.44989,0.07476 1.93098,0.229648 0.48079,0.15535 0.82265,0.390525 1.03327,0.708287 0.21,0.314999 0.31008,0.715655 0.30655,1.201355 -0.005,0.439494 -0.0965,0.798857 -0.28184,1.075325 -0.18528,0.279078 -0.43827,0.490766 -0.76601,0.64059 -0.32774,0.15274 -0.70552,0.256051 -1.13273,0.312696 -0.43121,0.0568 -0.89419,0.08289 -1.38956,0.08029 h -3.22782 z m 14.55734,9.054528 h 1.45372 l 1.62458,-3.131875 h 6.02827 l 1.62457,3.131875 h 1.45373 l -5.36588,-9.922924 h -1.45326 z m 3.48418,-3.938253 2.58707,-5.054411 2.65047,5.054411 z m 17.52956,3.938253 v -8.899638 l 4.7457,8.899638 h 1.3039 l 4.72406,-8.899638 V 70.9366 h 1.34673 v -9.922924 h -2.15878 l -4.57455,8.760099 -4.575,-8.760099 h -2.15879 V 70.9366 Z m 19.19651,0 h 1.45387 l 1.62443,-3.131875 h 6.02826 l 1.62458,3.131875 h 1.45372 l -5.36572,-9.922924 h -1.45327 z m 3.48432,-3.938253 2.58692,-5.054411 2.65063,5.054411 z" />
  <path
     id="path1922"
     style="fill:#fafafa;fill-rule:evenodd;stroke-width:1.53508198;fill-opacity:1"
     d="m 273.59444,100.52868 h -10.57886 c 0.44041,-0.47588 0.79302,-0.87515 1.06335,-1.192912 0.26434,-0.323134 0.45269,-0.570282 0.55877,-0.746356 0.3698,-0.599603 0.64627,-1.251551 0.82234,-1.968588 0.18222,-0.711357 0.27048,-1.487034 0.27048,-2.333478 v -8.886129 h 7.86392 z m 0.24653,3.56185 c 0.68189,0 1.24004,0.12327 1.68645,0.37594 0.44717,0.25882 0.79363,0.65241 1.04631,1.1989 0.25267,0.54096 0.42307,1.23451 0.51149,2.09247 l 0.10607,1.33997 h 3.56124 v -8.56913 h -2.46841 V 81.522218 H 261.11131 V 95.30971 c 0,1.040786 -0.16487,1.998677 -0.49967,2.87444 -0.33496,0.875611 -0.84031,1.656967 -1.51052,2.34453 h -2.08019 v 8.56913 h 3.52623 l 0.14108,-1.33997 c 0.076,-0.85796 0.24039,-1.55151 0.4814,-2.09247 0.24101,-0.54649 0.58195,-0.94008 1.02298,-1.1989 0.4464,-0.25267 1.01668,-0.37594 1.70425,-0.37594 z m 13.89357,-11.566226 c 0,-1.040171 0.12941,-1.998063 0.38208,-2.885493 0.25268,-0.887892 0.63476,-1.669249 1.14011,-2.333479 0.51133,-0.670216 1.13995,-1.187232 1.89859,-1.563174 0.75802,-0.376555 1.63931,-0.575962 2.64448,-0.588089 0.98737,0.0061 1.85699,0.199867 2.60949,0.576423 0.75234,0.382082 1.38096,0.904624 1.88631,1.580981 0.50535,0.675896 0.89357,1.46324 1.14624,2.362337 0.25882,0.899098 0.38823,1.874796 0.38823,2.920954 0,0.799164 -0.0768,1.586508 -0.2295,2.345145 -0.15259,0.764164 -0.38193,1.481047 -0.69969,2.145277 -0.31147,0.664075 -0.71074,1.245564 -1.19276,1.750913 -0.48754,0.50581 -1.05782,0.899558 -1.71591,1.187231 -0.66423,0.28215 -1.41673,0.42921 -2.26302,0.43474 -0.86962,-0.006 -1.63977,-0.15259 -2.304,-0.44027 -0.65809,-0.293809 -1.22838,-0.693698 -1.69259,-1.205034 -0.46988,-0.511489 -0.85181,-1.105105 -1.14563,-1.77486 -0.29427,-0.670217 -0.51149,-1.39278 -0.64688,-2.15679 -0.14108,-0.770305 -0.20555,-1.557802 -0.20555,-2.356812 z m 6.10072,11.989296 c 1.39278,-0.0123 2.65063,-0.22934 3.7846,-0.64074 1.12843,-0.41709 2.12747,-0.99289 2.99141,-1.73925 0.8641,-0.74636 1.58712,-1.62212 2.16861,-2.627294 0.58809,-1.005172 1.0285,-2.104135 1.32831,-3.296894 0.2998,-1.193373 0.44701,-2.445079 0.44701,-3.755732 -0.006,-1.692581 -0.24715,-3.232422 -0.73469,-4.619675 -0.49368,-1.39278 -1.1989,-2.591679 -2.12793,-3.602377 -0.92243,-1.010698 -2.05087,-1.786375 -3.36751,-2.333478 -1.32216,-0.552476 -2.82102,-0.828484 -4.48981,-0.834624 -1.74584,0.01228 -3.29751,0.311621 -4.643,0.905237 -1.34612,0.593617 -2.48008,1.4221 -3.40297,2.486066 -0.92858,1.069645 -1.62213,2.315671 -2.098,3.749591 -0.47649,1.42824 -0.71688,2.985888 -0.71688,4.672483 0.006,1.657121 0.2582,3.191435 0.75188,4.601868 0.49967,1.404445 1.22269,2.638959 2.16846,3.690799 0.94069,1.05168 2.0808,1.86911 3.41463,2.4506 1.33998,0.58809 2.84497,0.88175 4.52588,0.89342 z m 18.72493,-11.108005 h 4.44315 c 1.42762,0 2.50939,0.281994 3.2381,0.84629 0.73469,0.564143 1.09896,1.410434 1.09896,2.538873 0,1.07563 -0.35875,1.880934 -1.07578,2.410077 -0.71689,0.534822 -1.78024,0.799163 -3.19082,0.799163 h -4.51361 z m -4.61967,10.684935 h 10.57886 c 1.11662,0 2.15127,-0.17669 3.09703,-0.52315 0.94623,-0.34095 1.77532,-0.84015 2.48607,-1.49886 0.70537,-0.65195 1.2517,-1.44543 1.64606,-2.37999 0.3936,-0.934711 0.59301,-1.998062 0.59915,-3.179767 -0.006,-1.257386 -0.21154,-2.339004 -0.62309,-3.238102 -0.40542,-0.905238 -0.98123,-1.639928 -1.72758,-2.215737 -0.74636,-0.569823 -1.62827,-0.992891 -2.64495,-1.263373 -1.01684,-0.276622 -2.13914,-0.406029 -3.36137,-0.406029 h -5.43051 v -3.772771 h 11.95384 v -4.090533 h -16.57351 z m 27.15284,-18.477779 h 3.66746 c 1.30436,0 2.29172,0.288135 2.95595,0.869624 0.65809,0.58195 0.99351,1.457714 0.99351,2.621152 0,2.186264 -1.34013,3.279703 -4.02007,3.279703 h -3.59685 z m -4.61968,18.477779 h 4.61968 v -7.616767 h 4.47814 c 1.13458,-0.0061 2.18027,-0.176688 3.14431,-0.529296 0.96403,-0.346468 1.79865,-0.851817 2.51553,-1.516047 0.71689,-0.664077 1.27504,-1.469381 1.66879,-2.415605 0.39974,-0.951751 0.59976,-2.027536 0.6059,-3.226435 -0.006,-1.404447 -0.21783,-2.574486 -0.62923,-3.514571 -0.41708,-0.940237 -0.98123,-1.686594 -1.70425,-2.233544 -0.71704,-0.552015 -1.53999,-0.940084 -2.47455,-1.175105 -0.92857,-0.235328 -1.9098,-0.347082 -2.94981,-0.340942 h -9.27451 z m 24.15544,-11.566226 c 0,-1.040171 0.1294,-1.998063 0.38192,-2.885493 0.25268,-0.887892 0.63476,-1.669249 1.14011,-2.333479 0.51149,-0.670216 1.14011,-1.187232 1.89874,-1.563174 0.75803,-0.376555 1.63932,-0.575962 2.64434,-0.588089 0.98736,0.0061 1.85698,0.199867 2.60948,0.576423 0.7525,0.382082 1.38111,0.904624 1.88646,1.580981 0.50535,0.675896 0.89342,1.46324 1.1461,2.362337 0.25881,0.899098 0.38822,1.874796 0.38822,2.920954 0,0.799164 -0.0766,1.586508 -0.22934,2.345145 -0.15274,0.764164 -0.38209,1.481047 -0.69969,2.145277 -0.31147,0.664075 -0.71075,1.245564 -1.19276,1.750913 -0.4877,0.50581 -1.05798,0.899558 -1.71607,1.187231 -0.66408,0.28215 -1.41657,0.42921 -2.26286,0.43474 -0.86963,-0.006 -1.63993,-0.15259 -2.30401,-0.44027 -0.65809,-0.293809 -1.22837,-0.693698 -1.69258,-1.205034 -0.46989,-0.511489 -0.85197,-1.105105 -1.14563,-1.77486 -0.29443,-0.670217 -0.51149,-1.39278 -0.64704,-2.15679 -0.14107,-0.770305 -0.20539,-1.557802 -0.20539,-2.356812 z m 6.10072,11.989296 c 1.39278,-0.0123 2.65047,-0.22934 3.78444,-0.64074 1.12844,-0.41709 2.12747,-0.99289 2.99156,-1.73925 0.8641,-0.74636 1.58713,-1.62212 2.16846,-2.627294 0.58809,-1.005172 1.02851,-2.104135 1.32846,-3.296894 0.2998,-1.193373 0.44702,-2.445079 0.44702,-3.755732 -0.006,-1.692581 -0.24715,-3.232422 -0.73469,-4.619675 -0.49369,-1.39278 -1.19906,-2.591679 -2.12809,-3.602377 -0.92227,-1.010698 -2.05071,-1.786375 -3.36735,-2.333478 -1.32232,-0.552476 -2.82102,-0.828484 -4.48981,-0.834624 -1.746,0.01228 -3.29751,0.311621 -4.64301,0.905237 -1.34611,0.593617 -2.48008,1.4221 -3.40312,2.486066 -0.92842,1.069645 -1.62197,2.315671 -2.098,3.749591 -0.47634,1.42824 -0.71688,2.985888 -0.71688,4.672483 0.006,1.657121 0.2582,3.191435 0.75188,4.601868 0.49982,1.404445 1.22285,2.638959 2.16861,3.690799 0.9407,1.05168 2.0808,1.86911 3.41464,2.4506 1.33997,0.58809 2.84496,0.88175 4.52588,0.89342 z m 21.2288,-22.991382 8.03999,15.903296 -0.59975,1.339972 c -0.21169,0.458682 -0.58763,0.81129 -1.11677,1.052298 -0.53483,0.235016 -1.20458,0.358286 -2.0214,0.358286 h -0.91691 v 3.91446 h 2.89164 c 1.2339,0 2.30953,-0.34094 3.22029,-1.0285 0.91675,-0.68189 1.66311,-1.70425 2.24521,-3.062032 l 7.86377,-18.47778 h -5.00728 l -3.63232,8.921283 c -0.15888,0.382081 -0.31162,0.752497 -0.45254,1.116772 -0.1466,0.364275 -0.28767,0.758484 -0.42875,1.175565 -0.10607,-0.329275 -0.21153,-0.628616 -0.3176,-0.910764 -0.10562,-0.276468 -0.21169,-0.558616 -0.31715,-0.852431 L 387.142,81.522218 Z m 26.02394,4.090533 h 9.48543 v 18.477779 h 4.61982 V 81.522218 H 403.3629 v 22.568312 h 4.61968 z m 22.74485,0 h 3.66731 c 1.30451,0 2.29188,0.288135 2.95611,0.869624 0.65793,0.58195 0.99335,1.457714 0.99335,2.621152 0,2.186264 -1.33997,3.279703 -4.01992,3.279703 h -3.59685 z m -4.61968,18.477779 h 4.61968 v -7.616767 h 4.47814 c 1.13458,-0.0061 2.18012,-0.176688 3.14416,-0.529296 0.96403,-0.346468 1.7988,-0.851817 2.51569,-1.516047 0.71688,-0.664077 1.27504,-1.469381 1.66879,-2.415605 0.39973,-0.951751 0.5996,-2.027536 0.60574,-3.226435 -0.006,-1.404447 -0.21768,-2.574486 -0.62908,-3.514571 -0.41708,-0.940237 -0.98138,-1.686594 -1.7044,-2.233544 -0.71688,-0.552015 -1.53984,-0.940084 -2.4744,-1.175105 -0.92857,-0.235328 -1.90979,-0.347082 -2.94997,-0.340942 h -9.27435 z m 28.7395,-17.384954 2.85664,8.851283 h -5.67766 z m -4.16099,12.624206 h 8.25152 l 1.55151,4.760748 h 5.00744 l -7.93392,-22.568312 h -5.25443 l -8.03999,22.568312 h 4.90182 z m 21.54595,-13.717031 h 4.76013 c 0.84015,0 1.52219,0.0766 2.04519,0.246534 0.51702,0.165021 0.89358,0.423222 1.13458,0.775831 0.23487,0.352608 0.35261,0.81129 0.34647,1.375433 0.006,0.628616 -0.11774,1.122299 -0.37026,1.487188 -0.24669,0.358288 -0.64044,0.616949 -1.17511,0.763549 -0.53482,0.153355 -1.22837,0.223815 -2.08633,0.217675 h -4.65467 z m 0,8.639134 h 4.58406 c 0.68142,-0.0055 1.29837,0.02379 1.84532,0.08827 0.55263,0.07061 1.02237,0.206008 1.41059,0.405415 0.39375,0.199868 0.69355,0.505809 0.90508,0.905084 0.21169,0.399889 0.31715,0.934712 0.31715,1.598788 0,0.646422 -0.11774,1.157911 -0.34094,1.528326 -0.22934,0.375942 -0.54649,0.65195 -0.9519,0.828484 -0.41141,0.170548 -0.89342,0.282148 -1.44605,0.329275 -0.55248,0.05281 -1.15162,0.07061 -1.80971,0.06447 h -4.5136 z m -4.61983,9.838645 h 10.68494 c 2.57402,0 4.51375,-0.55815 5.81197,-1.6694 1.29346,-1.11662 1.94587,-2.791547 1.94587,-5.030616 0,-0.72855 -0.11221,-1.404446 -0.32375,-2.039049 -0.21706,-0.62923 -0.52868,-1.187386 -0.94561,-1.669402 -0.41769,-0.482016 -0.92304,-0.864098 -1.52833,-1.146092 -0.59975,-0.282148 -1.29284,-0.441029 -2.06852,-0.470349 0.57581,-0.111601 1.11616,-0.317148 1.60984,-0.610963 0.49982,-0.299801 0.93456,-0.670217 1.3105,-1.098965 0.37656,-0.434735 0.67037,-0.905084 0.88191,-1.416574 0.21153,-0.505349 0.31714,-1.028505 0.32313,-1.563174 0,-0.987365 -0.1882,-1.863129 -0.558,-2.627293 -0.37656,-0.764163 -0.9407,-1.42824 -1.69872,-1.992536 -0.54649,-0.423069 -1.28732,-0.734076 -2.22741,-0.933944 -0.93455,-0.200021 -2.07466,-0.299955 -3.41463,-0.299955 h -9.80319 z m 19.60622,0 h 4.90182 l 5.67704,-17.384954 5.64204,17.384954 h 5.00729 l -7.93377,-22.568312 h -5.25443 z m 40.05858,0 v -4.090532 h -12.09491 v -5.748113 h 10.57886 v -3.843384 h -10.57886 v -4.79575 h 11.56623 v -4.090533 h -16.18591 v 22.568312 z m 3.24424,0 h 4.61968 v -9.803184 h 8.92128 v 9.803184 h 4.61968 V 81.522218 h -4.61968 v 8.745209 h -8.92128 v -8.745209 h -4.61968 z m 21.86295,0 h 5.74811 l 8.35699,-16.996732 v 16.996732 h 4.65483 V 81.522218 h -5.64204 l -8.46322,17.419955 V 81.522218 h -4.65467 z m 39.42397,0 v -4.090532 h -12.09491 v -5.748113 h 10.57886 v -3.843384 h -10.57886 v -4.79575 h 11.56623 v -4.090533 h -16.1859 v 22.568312 z" />
</svg>
