<?xml version="1.0" encoding="UTF-8" standalone="no"?>
<svg
   xmlns:dc="http://purl.org/dc/elements/1.1/"
   xmlns:cc="http://creativecommons.org/ns#"
   xmlns:rdf="http://www.w3.org/1999/02/22-rdf-syntax-ns#"
   xmlns:svg="http://www.w3.org/2000/svg"
   xmlns="http://www.w3.org/2000/svg"
   id="svg1716"
   version="1.1"
   viewBox="0 0 43.391665 43.391667"
   height="164"
   width="164">
  <defs
     id="defs1710" />
  <metadata
     id="metadata1713">
    <rdf:RDF>
      <cc:Work
         rdf:about="">
        <dc:format>image/svg+xml</dc:format>
        <dc:type
           rdf:resource="http://purl.org/dc/dcmitype/StillImage" />
        <dc:title></dc:title>
      </cc:Work>
    </rdf:RDF>
  </metadata>
  <g
     transform="translate(-140.60714,-214.79174)"
     id="layer1">
    <path
       clip-path="none"
       style="display:inline;fill:#000000;fill-opacity:1;stroke:none;stroke-width:0.26458335px;stroke-linecap:butt;stroke-linejoin:miter;stroke-opacity:1"
       d="m 166.30756,233.85775 c 0,0 -6.79412,2.57607 -6.89585,2.61481 -0.0837,0.0317 -0.12058,0.11921 -0.12119,0.24966 v 0.46059 c 0.0169,0.0726 0.0478,0.14116 0.15811,0.18633 h 0.77734 l -7.3e-4,0.42191 c 0.0668,0.18173 0.15557,0.25313 0.31416,0.2849 l 5.76878,-0.004 5.76884,0.004 c 0.15857,-0.0317 0.24741,-0.10323 0.31412,-0.2849 l -7.3e-4,-0.42191 h 0.77734 c 0.11056,-0.0453 0.14115,-0.11387 0.15807,-0.18633 v -0.46059 c -7.3e-4,-0.13035 -0.0378,-0.21785 -0.12119,-0.24966 -0.10166,-0.0388 -6.8958,-2.61481 -6.8958,-2.61481 z m -4.68216,4.69041 v 5.61063 h -1.06949 c -0.18713,0.016 -0.28486,0.11387 -0.33424,0.25587 v 0.67871 h 6.08589 6.08584 v -0.67871 c -0.0494,-0.14192 -0.1471,-0.23984 -0.33422,-0.25587 h -1.06949 v -5.60643 h -1.87442 v 5.60643 h -1.87054 v -5.60643 h -1.87439 v 5.60643 h -1.87053 v -5.61063 z m -1.65586,7.01702 c -0.29722,0.0342 -0.56278,0.15047 -0.68816,0.62997 v 0.5878 c 0.009,0.0664 0.0438,0.17553 0.17465,0.18417 h 6.85153 6.85149 c 0.1308,-0.009 0.16524,-0.11784 0.17465,-0.18417 v -0.5878 c -0.12531,-0.4795 -0.39094,-0.59577 -0.68816,-0.62997 h -6.33798 z"
       id="path2531" />
    <g
       style="display:inline"
       transform="translate(72.086169,28.216651)"
       id="g2362">
      <path
         style="opacity:1;fill:#ffffff;fill-opacity:1;stroke:#000000;stroke-width:0.26458332;stroke-linecap:round;stroke-linejoin:round;stroke-miterlimit:4;stroke-dasharray:none;stroke-opacity:1;paint-order:normal"
         d="m 90.360476,187.51025 a 21.166664,21.166664 0 0 0 -1.05265,0.0372 l 0.11472,2.3027 a 18.520833,18.520833 0 0 1 0.93793,-0.0331 18.520833,18.520833 0 0 1 18.520834,18.52084 18.520833,18.520833 0 0 1 -0.66146,4.82296 l 2.64428,0.71417 a 21.166664,21.166664 0 0 0 0.66301,-5.19814 21.166664,21.166664 0 0 0 -21.166664,-21.16666 z"
         id="path6296" />
      <path
         style="opacity:1;fill:#00a651;fill-opacity:1;stroke:#000000;stroke-width:0.26458332;stroke-linecap:round;stroke-linejoin:round;stroke-miterlimit:4;stroke-dasharray:none;stroke-opacity:1;paint-order:normal"
         d="m 108.77744,206.55457 -3.93309,0.38085 a 14.552083,14.552083 0 0 1 0.0682,1.28984 14.552083,14.552083 0 0 1 -14.552084,14.55209 14.552083,14.552083 0 0 1 -5.48235,-1.08159 l -1.54461,3.76308 c 2.22886,0.91959 4.61584,1.39512 7.02696,1.39991 10.228774,0 18.520834,-8.29206 18.520834,-18.52083 -0.006,-0.59578 -0.0406,-1.19092 -0.10387,-1.78335 z"
         id="path6298" />
      <path
         style="opacity:1;fill:#ffffff;fill-opacity:1;stroke:#000000;stroke-width:0.26458332;stroke-linecap:round;stroke-linejoin:round;stroke-miterlimit:4;stroke-dasharray:none;stroke-opacity:1;paint-order:normal"
         d="m 71.148206,199.848 a 21.166664,21.166664 0 0 0 -1.9544,8.82891 21.166664,21.166664 0 0 0 15.91944,20.48816 l 0.7395,-2.88716 a 18.520833,18.520833 0 0 1 -14.01311,-17.93999 18.520833,18.520833 0 0 1 1.57562,-7.44813 z"
         id="path6294" />
      <path
         style="opacity:1;fill:#d22134;fill-opacity:1;stroke:#000000;stroke-width:0.26458332;stroke-linecap:round;stroke-linejoin:round;stroke-miterlimit:4;stroke-dasharray:none;stroke-opacity:1;paint-order:normal"
         d="m 85.184046,193.34917 a 15.874998,15.874998 0 0 0 -10.69857,14.98875 15.874998,15.874998 0 0 0 1.3317,6.31744 l 2.44636,-1.06247 a 13.229166,13.229166 0 0 1 -1.13223,-5.3144 13.229166,13.229166 0 0 1 8.89713,-12.48399 z"
         id="path6304" />
      <path
         style="opacity:1;fill:#ffffff;fill-opacity:1;stroke:#000000;stroke-width:0.26458332;stroke-linecap:round;stroke-linejoin:round;stroke-miterlimit:4;stroke-dasharray:none;stroke-opacity:1;paint-order:normal"
         d="m 105.53991,218.9352 a 18.520833,18.520833 0 0 1 -9.650054,7.05694 l 0.90692,2.84014 a 21.166664,21.166664 0 0 0 11.053074,-8.28425 z"
         id="path5812" />
      <path
         style="opacity:1;fill:#d22134;fill-opacity:1;stroke:#000000;stroke-width:0.26458332;stroke-linecap:round;stroke-linejoin:round;stroke-miterlimit:4;stroke-dasharray:none;stroke-opacity:1;paint-order:normal"
         d="m 100.0126,195.74799 -1.584404,2.06654 a 13.229166,13.229166 0 0 1 5.161444,10.46396 13.229166,13.229166 0 0 1 -13.229164,13.22917 13.229166,13.229166 0 0 1 -0.10387,-0.005 l -0.0212,2.70423 a 15.874998,15.874998 0 0 0 0.12505,0.006 15.874998,15.874998 0 0 0 15.875004,-15.875 15.874998,15.874998 0 0 0 -6.22287,-12.58993 z"
         id="path6302" />
      <path
         style="opacity:1;fill:#00a651;fill-opacity:1;stroke:#000000;stroke-width:0.26458332;stroke-linecap:round;stroke-linejoin:round;stroke-miterlimit:4;stroke-dasharray:none;stroke-opacity:1;paint-order:normal"
         d="m 90.360476,189.81708 c -6.59106,0.009 -12.68055,3.52079 -15.99024,9.22063 l 3.3724,1.96164 a 14.552083,14.552083 0 0 1 12.61784,-7.32617 14.552083,14.552083 0 0 1 2.70113,0.26148 l 0.71055,-3.78891 c -1.12462,-0.21478 -2.26674,-0.3248 -3.41168,-0.32867 z"
         id="path6300" />
    </g>
  </g>
</svg>
